<svg xmlns="http://www.w3.org/2000/svg" xmlns:svg="http://www.w3.org/2000/svg" xmlns:xlink="http://www.w3.org/1999/xlink" id="svg2" width="22" height="22" version="1.0"><defs id="defs4"><linearGradient id="linearGradient3327"><stop style="stop-color:#000;stop-opacity:1" id="stop3330" offset="0"/><stop style="stop-color:#000;stop-opacity:0" id="stop3333" offset="1"/></linearGradient><linearGradient id="linearGradient3335" x1="11.375" x2="11.375" y1="22" y2="-9.817" gradientUnits="userSpaceOnUse" xlink:href="#linearGradient3327"/><linearGradient id="ButtonShadow" x1="9.355" x2="9.355" y1="21.743" y2=".494" gradientTransform="scale(0.9883037,1.0118347)" gradientUnits="userSpaceOnUse"><stop id="stop3277" offset="0" style="stop-color:#000;stop-opacity:.70588237"/><stop id="stop3279" offset="1" style="stop-color:#000;stop-opacity:.15686275"/></linearGradient><linearGradient id="ButtonColor" x1="10.32" x2="10.32" y1="21" y2=".999" gradientUnits="userSpaceOnUse"><stop style="stop-color:#8f1cac;stop-opacity:1" id="stop3189" offset="0"/><stop style="stop-color:#d285e6;stop-opacity:1" id="stop3191" offset="1"/></linearGradient><linearGradient id="linearGradient3181" x1="-3.061" x2="-3.061" y1="27.258" y2="7.254" gradientTransform="translate(11.119372,-6.2581978)" gradientUnits="userSpaceOnUse" xlink:href="#linearGradient3257"/><filter id="filter8716" width="1.54" height="2.081" x="-.27" y="-.541"><feGaussianBlur id="feGaussianBlur8718" stdDeviation="2.021"/></filter><linearGradient id="linearGradient3215"><stop style="stop-color:#000;stop-opacity:1" id="stop3217" offset="0"/><stop style="stop-color:#000;stop-opacity:0" id="stop3219" offset="1"/></linearGradient><linearGradient id="linearGradient3221" x1="11" x2="11" y1="14.806" y2="-6" gradientUnits="userSpaceOnUse" xlink:href="#linearGradient3215"/><linearGradient id="linearGradient2442" x1="47.667" x2="47.667" y1="121.972" y2="5.949" gradientTransform="matrix(0.1678362,0,0,0.1678362,0.2447365,0.2447375)" gradientUnits="userSpaceOnUse" xlink:href="#linearGradient3257"/><linearGradient id="linearGradient3257"><stop style="stop-color:#a50000;stop-opacity:1" id="stop3259" offset="0"/><stop style="stop-color:#e73800;stop-opacity:1" id="stop3261" offset="1"/></linearGradient><filter id="filter3225"><feGaussianBlur id="feGaussianBlur3227" stdDeviation=".148"/></filter><linearGradient id="linearGradient3845" x1="11" x2="21" y1="19.5" y2="19.5" gradientUnits="userSpaceOnUse" spreadMethod="reflect" xlink:href="#linearGradient3831"/><linearGradient id="linearGradient3831"><stop style="stop-color:#fff;stop-opacity:1" id="stop3833" offset="0"/><stop id="stop3821" offset=".75" style="stop-color:#fff;stop-opacity:.49803922"/><stop style="stop-color:#fff;stop-opacity:0" id="stop3835" offset="1"/></linearGradient><linearGradient id="linearGradient3084" x1="10" x2="10" y1="1" y2="16" gradientUnits="userSpaceOnUse" xlink:href="#linearGradient3823"/><linearGradient id="linearGradient3823"><stop id="stop3825" offset="0" style="stop-color:#fff;stop-opacity:1"/><stop id="stop3829" offset="1" style="stop-color:#fff;stop-opacity:0"/></linearGradient><linearGradient id="linearGradient3101" x1="10" x2="10" y1="1" y2="16" gradientUnits="userSpaceOnUse" xlink:href="#linearGradient3823"/><clipPath id="clipPath2849" clipPathUnits="userSpaceOnUse"><rect id="rect2851" width="20" height="20" x="1" y="1" rx="2" ry="2" style="fill:#fff;fill-opacity:1;fill-rule:evenodd;stroke:none;display:inline"/></clipPath><filter id="filter3194" width="1.36" height="1.36" x="-.18" y="-.18" color-interpolation-filters="sRGB"><feGaussianBlur id="feGaussianBlur3196" stdDeviation="1.2"/></filter></defs><metadata id="metadata7"/><g id="layer1"><g style="display:inline" id="g3337"><rect id="rect3371" width="21" height="21.5" x=".5" y=".5" rx="2.5" ry="2.5" style="opacity:.3;fill:url(#linearGradient3335);fill-opacity:1;stroke:none;stroke-width:1.00000012;stroke-linecap:round;stroke-linejoin:miter;stroke-miterlimit:4;stroke-dasharray:none;stroke-opacity:1;display:inline"/><rect style="opacity:.5;fill:#000;fill-opacity:1;stroke:none;stroke-width:1.00000012;stroke-linecap:round;stroke-linejoin:miter;stroke-miterlimit:4;stroke-dasharray:none;stroke-opacity:1;display:inline" id="rect2553" width="20" height="20" x="1" y="2" rx="2.381" ry="2.326"/></g><rect style="opacity:1;fill:url(#linearGradient3181);fill-opacity:1;fill-rule:evenodd;stroke:none;stroke-width:.25;stroke-linecap:round;stroke-linejoin:miter;stroke-miterlimit:4;stroke-dasharray:none;stroke-dashoffset:0;stroke-opacity:1;display:inline" id="rect3173" width="20" height="20" x="1" y="1" rx="2" ry="2"/><path style="opacity:.3;fill:url(#linearGradient3101);fill-opacity:1;fill-rule:evenodd;stroke:none;display:inline" id="rect3050" d="M 3,1 C 1.892,1 1,1.892 1,3 l 0,16 c 0,1.108 0.892,2 2,2 l 16,0 c 1.108,0 2,-0.892 2,-2 L 21,3 C 21,1.892 20.108,1 19,1 L 3,1 z m 0,1.03125 16,0 c 0.5497,0 0.96875,0.4190495 0.96875,0.96875 l 0,16 c 0,0.5497 -0.41905,0.96875 -0.96875,0.96875 l -16,0 C 2.4502995,19.96875 2.03125,19.5497 2.03125,19 l 0,-16 C 2.03125,2.4502995 2.4502995,2.03125 3,2.03125 z"/><path id="path3235" d="M 3,21 C 1.892,21 1,20.108 1,19 l 0,-1 c 0,1.108 0.892,2 2,2 l 16,0 c 1.108,0 2,-0.892 2,-2 l 0,1 c 0,1.108 -0.892,2 -2,2 L 3,21 z" style="opacity:.15;fill:url(#linearGradient3845);fill-opacity:1;fill-rule:evenodd;stroke:none;display:inline"/></g><g id="layer2"><rect style="opacity:.1;fill:#fff;fill-opacity:1;fill-rule:nonzero;stroke:none;display:inline;filter:url(#filter3194)" id="rect2410" width="16" height="16" x="3" y="3" clip-path="url(#clipPath2849)" rx="2" ry="2"/></g><g id="layer3"><path id="path2437" d="M 14.500001,5 L 11.000001,8.4999998 L 7.5,5 L 4.5,7.9999998 L 8.000001,11.5 L 4.5,14.999999 L 7.5,18 L 11.000001,14.5 L 14.500001,18 L 17.5,14.999999 L 14.000001,11.5 L 17.5,7.9999998 L 14.500001,5 z" style="opacity:.6;fill:#000;fill-opacity:1;stroke:none;stroke-width:1;stroke-linecap:round;stroke-linejoin:miter;stroke-miterlimit:4;stroke-dasharray:none;stroke-opacity:1;display:inline;filter:url(#filter3225)"/><path style="fill:#fff;fill-opacity:1;stroke:none;stroke-width:1;stroke-linecap:round;stroke-linejoin:miter;stroke-miterlimit:4;stroke-dasharray:none;stroke-opacity:1;display:inline" id="rect2498" d="M 14.500001,4.5000001 L 11.000001,7.9999999 L 7.5,4.5000001 L 4.5,7.4999999 L 8.000001,11 L 4.5,14.499999 L 7.5,17.5 L 11.000001,14 L 14.500001,17.5 L 17.5,14.499999 L 14.000001,11 L 17.5,7.4999999 L 14.500001,4.5000001 z"/></g></svg>