<svg xmlns="http://www.w3.org/2000/svg" xmlns:svg="http://www.w3.org/2000/svg" xmlns:xlink="http://www.w3.org/1999/xlink" id="svg2" width="22" height="22" version="1.0" style="display:inline"><defs id="defs4"><linearGradient id="linearGradient2549" x1="11.999" x2="11.999" y1=".922" y2="17.478" gradientTransform="matrix(0.9247229,0,0,1.0872097,20.939944,2.9976422)" gradientUnits="userSpaceOnUse" xlink:href="#StandardGradient"/><linearGradient id="StandardGradient" x1="11.999" x2="11.999" y1=".922" y2="19.387" gradientTransform="scale(0.9219544,1.0846523)" gradientUnits="userSpaceOnUse"><stop style="stop-color:#000;stop-opacity:.86274511" id="stop3283" offset="0"/><stop style="stop-color:#000;stop-opacity:.47058824" id="stop2651" offset="1"/></linearGradient><linearGradient id="linearGradient3978" x1="11.999" x2="11.999" y1=".922" y2="17.478" gradientTransform="matrix(0.9247229,0,0,1.0872097,-2.060056,1.9976422)" gradientUnits="userSpaceOnUse" xlink:href="#StandardGradient"/><linearGradient id="linearGradient3983" x1="11.999" x2="11.999" y1=".922" y2="19.387" gradientTransform="matrix(0.9219544,0,0,1.0846523,2,-2)" gradientUnits="userSpaceOnUse" xlink:href="#StandardGradient"/><linearGradient id="linearGradient3986" x1="11.999" x2="11.999" y1=".922" y2="19.387" gradientTransform="matrix(0.9219544,0,0,1.0846523,6.25e-2,-2)" gradientUnits="userSpaceOnUse" xlink:href="#StandardGradient"/><linearGradient id="linearGradient3989" x1="11.999" x2="11.999" y1=".922" y2="19.387" gradientTransform="matrix(0.9219544,0,0,1.0846523,-1,-2)" gradientUnits="userSpaceOnUse" xlink:href="#StandardGradient"/><linearGradient id="linearGradient3992" x1="11.999" x2="11.999" y1=".922" y2="19.387" gradientTransform="matrix(0.9219544,0,0,1.0846523,-1,-2)" gradientUnits="userSpaceOnUse" xlink:href="#StandardGradient"/><linearGradient id="linearGradient3995" x1="11.999" x2="11.999" y1="4.61" y2="19.387" gradientTransform="matrix(0.9219544,0,0,1.0846523,0,-2)" gradientUnits="userSpaceOnUse" xlink:href="#StandardGradient"/><linearGradient id="linearGradient2400" x1="11.999" x2="11.999" y1="4.61" y2="19.387" gradientTransform="matrix(0.9219544,0,0,1.0846523,20,-2)" gradientUnits="userSpaceOnUse" xlink:href="#StandardGradient"/><linearGradient id="linearGradient2407" x1="11.999" x2="11.999" y1="4.61" y2="19.387" gradientTransform="matrix(0.9219544,0,0,1.0846523,20,-2)" gradientUnits="userSpaceOnUse" xlink:href="#StandardGradient"/><linearGradient id="linearGradient2412" x1="11.999" x2="11.999" y1="4.61" y2="19.387" gradientTransform="matrix(0.9219544,0,0,1.0846523,20,-2)" gradientUnits="userSpaceOnUse" xlink:href="#StandardGradient"/><linearGradient id="linearGradient2422" x1="11.999" x2="11.999" y1="4.61" y2="19.387" gradientTransform="matrix(0.9219544,0,0,1.0846523,1,0)" gradientUnits="userSpaceOnUse" xlink:href="#StandardGradient"/><linearGradient id="linearGradient2424" x1="11.999" x2="11.999" y1="4.61" y2="19.387" gradientTransform="matrix(0.9219544,0,0,1.0846523,0,-2)" gradientUnits="userSpaceOnUse" xlink:href="#StandardGradient"/><linearGradient id="linearGradient2427" x1="11.999" x2="11.999" y1="4.61" y2="19.387" gradientTransform="matrix(0.9219544,0,0,1.0846523,-2,-3)" gradientUnits="userSpaceOnUse" xlink:href="#StandardGradient"/><linearGradient id="linearGradient3640" x1="11.999" x2="11.999" y1="4.61" y2="19.387" gradientTransform="matrix(0.9219544,0,0,1.0846523,-32,-3)" gradientUnits="userSpaceOnUse" xlink:href="#StandardGradient"/><linearGradient id="linearGradient3657" x1="11.999" x2="11.999" y1="4.61" y2="19.387" gradientTransform="matrix(0.9219544,0,0,1.0846523,-32,27)" gradientUnits="userSpaceOnUse" xlink:href="#StandardGradient"/><clipPath id="clipPath3660" clipPathUnits="userSpaceOnUse"><path style="fill:#f0f;fill-opacity:1;stroke:none;display:inline" id="path3662" d="m -30,0 0,22 22,0 0,-22 -22,0 z m 6.5,3 9,0 c 0.831,0 1.5,0.669 1.5,1.5 l 0,11 c 0,0.831 -0.669,1.5 -1.5,1.5 l -3.5,0 0,-2 2.5,0 c 0.277,0 0.5,-0.223 0.5,-0.5 l 0,-9 C -15,5.223 -15.223,5 -15.5,5 l -7,0 C -22.777,5 -23,5.223 -23,5.5 l 0,4.5 -2,0 0,-5.5 C -25,3.669 -24.331,3 -23.5,3 z m -1.5,8 3,0 0,3 3,0 0,3 -3,0 0,3 -3,0 0,-3 -3,0 0,-3 3,0 0,-3 z"/></clipPath><filter id="filter3664"><feGaussianBlur id="feGaussianBlur3666" stdDeviation=".48"/></filter><linearGradient id="linearGradient4694" x1="11.999" x2="11.999" y1="4.61" y2="19.387" gradientTransform="matrix(0.9219544,0,0,1.0846523,-2,-3)" gradientUnits="userSpaceOnUse" xlink:href="#StandardGradient"/><linearGradient id="linearGradient4698" x1="11.999" x2="11.999" y1="4.61" y2="19.387" gradientTransform="matrix(0.9219544,0,0,1.0846523,-2,-3)" gradientUnits="userSpaceOnUse" xlink:href="#StandardGradient"/></defs><metadata id="metadata7"/><g style="display:inline" id="layer1"><path style="fill:#fff;fill-opacity:1;stroke:none;display:inline;opacity:.15" id="path4696" d="M 6.5 1.96875 C 5.1167014 1.96875 3.96875 3.1167014 3.96875 4.5 L 3.96875 10 A 1.0291616 1.0291616 0 0 0 4.09375 10.5 A 1.0291616 1.0291616 0 0 0 4.09375 10.53125 A 1.0291616 1.0291616 0 0 0 3.96875 11 L 3.96875 12.96875 L 2 12.96875 A 1.0291616 1.0291616 0 0 0 0.96875 14 L 0.96875 17 A 1.0291616 1.0291616 0 0 0 2 18.03125 L 3.96875 18.03125 L 3.96875 20 A 1.0291616 1.0291616 0 0 0 5 21.03125 L 8 21.03125 A 1.0291616 1.0291616 0 0 0 9.03125 20 L 9.03125 18.03125 L 11 18.03125 A 1.0291616 1.0291616 0 0 0 11.5 17.90625 A 1.0291616 1.0291616 0 0 0 11.53125 17.90625 A 1.0291616 1.0291616 0 0 0 12 18.03125 L 15.5 18.03125 C 16.883299 18.03125 18.03125 16.883299 18.03125 15.5 L 18.03125 4.5 C 18.03125 3.1167014 16.883299 1.96875 15.5 1.96875 L 6.5 1.96875 z M 6.5 3 L 15.5 3 C 16.331 3 17 3.669 17 4.5 L 17 15.5 C 17 16.331 16.331 17 15.5 17 L 12 17 L 12 15 L 14.5 15 C 14.777 15 15 14.777 15 14.5 L 15 5.5 C 15 5.223 14.777 5 14.5 5 L 7.5 5 C 7.223 5 7 5.223 7 5.5 L 7 10 L 5 10 L 5 4.5 C 5 3.669 5.669 3 6.5 3 z M 8.03125 6.03125 L 13.96875 6.03125 L 13.96875 13.96875 L 12.03125 13.96875 A 1.0291616 1.0291616 0 0 0 11 12.96875 L 9.03125 12.96875 L 9.03125 11 A 1.0291616 1.0291616 0 0 0 8.03125 9.96875 L 8.03125 6.03125 z M 5 11 L 8 11 L 8 14 L 11 14 L 11 17 L 8 17 L 8 20 L 5 20 L 5 17 L 2 17 L 2 14 L 5 14 L 5 11 z"/><path style="fill:url(#linearGradient2427);fill-opacity:1;stroke:none;stroke-width:1.0000002400000001;stroke-linecap:round;stroke-linejoin:miter;stroke-miterlimit:4;stroke-dasharray:none;stroke-opacity:1;display:inline" id="Symbol" d="M 6.5 3 C 5.669 3 5 3.669 5 4.5 L 5 10 L 7 10 L 7 5.5 C 7 5.223 7.223 5 7.5 5 L 14.5 5 C 14.777 5 15 5.223 15 5.5 L 15 14.5 C 15 14.777 14.777 15 14.5 15 L 12 15 L 12 17 L 15.5 17 C 16.331 17 17 16.331 17 15.5 L 17 4.5 C 17 3.669 16.331 3 15.5 3 L 6.5 3 z M 5 11 L 5 14 L 2 14 L 2 17 L 5 17 L 5 20 L 8 20 L 8 17 L 11 17 L 11 14 L 8 14 L 8 11 L 5 11 z"/><path style="opacity:.5;fill:#000;fill-opacity:1;stroke:none;stroke-width:1.00000024;stroke-linecap:round;stroke-linejoin:miter;stroke-miterlimit:4;stroke-dasharray:none;stroke-opacity:1;display:inline" id="BevelShadow" d="M 6.5,3 C 5.669,3 5,3.669 5,4.5 L 5,5.5 C 5,4.669 5.669,4 6.5,4 L 15.5,4 C 16.331,4 17,4.669 17,5.5 L 17,4.5 C 17,3.669 16.331,3 15.5,3 L 6.5,3 z M 5,11 L 5,12 L 8,12 L 8,11 L 7,11 L 5,11 z M 2,14 L 2,15 L 5,15 L 5,14 L 2,14 z M 8,14 L 8,15 L 11,15 L 11,14 L 8,14 z M 15,14.5 C 15,14.777 14.777,15 14.5,15 L 12,15 L 12,16 L 14.5,16 C 14.777,16 15,15.777 15,15.5 L 15,14.5 z"/><path style="opacity:.3;fill:#fff;fill-opacity:1;stroke:none;stroke-width:1.0000002400000001;stroke-linecap:round;stroke-linejoin:miter;stroke-miterlimit:4;stroke-dasharray:none;stroke-opacity:1;display:inline" id="BevelHighlight" d="M 7.5,5 C 7.223,5 7,5.223 7,5.5 L 7,6.5 C 7,6.223 7.223,6 7.5,6 L 14.5,6 C 14.777,6 15,6.223 15,6.5 L 15,5.5 C 15,5.223 14.777,5 14.5,5 L 7.5,5 z M 5,10 L 5,11 L 7,11 L 7,10 L 5,10 z M 17,15.5 C 17,16.331 16.331,17 15.5,17 L 12,17 L 12,18 L 15.5,18 C 16.331,18 17,17.331 17,16.5 L 17,15.5 z M 2,17 L 2,18 L 5,18 L 5,17 L 2,17 z M 8,17 L 8,18 L 11,18 L 11,17 L 8,17 z M 5,20 L 5,21 L 8,21 L 8,20 L 5,20 z"/></g></svg>