<svg xmlns="http://www.w3.org/2000/svg" xmlns:svg="http://www.w3.org/2000/svg" xmlns:xlink="http://www.w3.org/1999/xlink" id="svg2" width="22" height="22" version="1.0"><defs id="defs4"><linearGradient id="StandardGradient" x1="11.347" x2="11.347" y1="6" y2="16.013" gradientTransform="translate(-3,-2.9995677)" gradientUnits="userSpaceOnUse"><stop id="stop3177" offset="0" style="stop-color:#000;stop-opacity:.86274511"/><stop id="stop3179" offset="1" style="stop-color:#000;stop-opacity:.47058824"/></linearGradient><linearGradient id="linearGradient2406" x1="11.347" x2="11.347" y1="5.999" y2="16.972" gradientTransform="matrix(1.2,0,0,1.1848047,1.4,-0.1087479)" gradientUnits="userSpaceOnUse" xlink:href="#StandardGradient"/><linearGradient id="linearGradient3627" x1="11.347" x2="11.347" y1="5.999" y2="16.972" gradientTransform="matrix(1.2,0,0,1.1848047,-28.6,-0.1087479)" gradientUnits="userSpaceOnUse" xlink:href="#StandardGradient"/><clipPath id="clipPath3634" clipPathUnits="userSpaceOnUse"><path style="fill:#f0f;fill-opacity:1;stroke:none;display:inline" id="path3636" d="m -27,2.9995677 0,22.0000003 22,0 0,-22.0000003 -22,0 z m 9.1875,4 10.8125,0 0,13.0000003 -10.8125,0 -7.1875,-6.46875 7.1875,-6.5312503 z m 1.84375,2.375 -1.6875,1.6562503 2.53125,2.5 -2.53125,2.46875 1.6875,1.65625 2.53125,-2.46875 2.5,2.46875 1.6875,-1.65625 -2.5,-2.46875 2.5,-2.5 -1.6875,-1.6562503 -2.5,2.4687503 -2.53125,-2.4687503 z"/></clipPath><filter id="filter3638"><feGaussianBlur id="feGaussianBlur3640" stdDeviation=".465"/></filter><linearGradient id="linearGradient4978" x1="11.347" x2="11.347" y1="5.999" y2="16.972" gradientTransform="matrix(1.2,0,0,1.1848047,1.4,-0.1087479)" gradientUnits="userSpaceOnUse" xlink:href="#StandardGradient"/><linearGradient id="linearGradient4982" x1="11.347" x2="11.347" y1="5.999" y2="16.972" gradientTransform="matrix(1.2,0,0,1.1848047,-1.6,-3.1083156)" gradientUnits="userSpaceOnUse" xlink:href="#StandardGradient"/></defs><metadata id="metadata7"/><g id="layer3" transform="translate(-3,-2.9995677)" style="display:inline"><path style="fill:#fff;fill-opacity:1;stroke:none;opacity:.15" id="path4980" d="M 9 3 A 1.0031541 1.0031541 0 0 0 8.5 3.25 L 1.3125 9.78125 A 1.0031541 1.0031541 0 0 0 1.34375 11.28125 L 8.53125 17.75 A 1.0031541 1.0031541 0 0 0 9.1875 18 L 20 18 A 1.0031541 1.0031541 0 0 0 21 17 L 21 4 A 1.0031541 1.0031541 0 0 0 20 3 L 9.1875 3 A 1.0031541 1.0031541 0 0 0 9.09375 3 A 1.0031541 1.0031541 0 0 0 9 3 z M 9.1875 4 L 20 4 L 20 17 L 9.1875 17 L 2 10.53125 L 9.1875 4 z M 11.03125 6.375 L 9.34375 8.03125 L 11.875 10.53125 L 9.34375 13 L 11.03125 14.65625 L 13.5625 12.1875 L 16.0625 14.65625 L 17.75 13 L 15.25 10.53125 L 17.75 8.03125 L 16.0625 6.375 L 13.5625 8.84375 L 11.03125 6.375 z M 11.03125 7.78125 L 12.875 9.5625 A 1.0031541 1.0031541 0 0 0 14.28125 9.5625 L 16.09375 7.78125 L 16.3125 8.03125 L 14.53125 9.8125 A 1.0031541 1.0031541 0 0 0 14.53125 11.25 L 16.3125 13 L 16.09375 13.25 L 14.28125 11.46875 A 1.0031541 1.0031541 0 0 0 12.875 11.46875 L 11.03125 13.25 L 10.78125 13 L 12.5625 11.25 A 1.0031541 1.0031541 0 0 0 12.59375 9.8125 L 10.78125 8.03125 L 11.03125 7.78125 z" transform="translate(3,2.9995677)"/><path style="opacity:1;fill:url(#linearGradient2406);fill-opacity:1;stroke:none;stroke-width:1.00000024;stroke-linecap:round;stroke-linejoin:miter;stroke-miterlimit:4;stroke-dasharray:none;stroke-opacity:1" id="Symbol" d="M 12.2,6.999568 L 5,13.515994 L 12.2,19.999568 L 23,19.999568 L 23,6.999568 L 12.2,6.999568 z M 14.04375,9.3720651 L 16.55625,11.85275 L 19.06875,9.3720651 L 20.75625,11.038197 L 18.24375,13.518882 L 20.75625,15.999568 L 19.06875,17.665699 L 16.55625,15.185014 L 14.04375,17.665699 L 12.35625,15.999568 L 14.86875,13.518882 L 12.35625,11.038197 L 14.04375,9.3720651 z"/><path style="opacity:.5;fill:#000;fill-opacity:1;stroke:none;stroke-width:1.00000024;stroke-linecap:round;stroke-linejoin:miter;stroke-miterlimit:4;stroke-dasharray:none;stroke-opacity:1" id="BevelShadow" d="M 9.1875,4 L 2,10.53125 L 2.5625,11.03125 L 9.1875,5 L 20,5 L 20,4 L 9.1875,4 z M 9.84375,8.53125 L 9.34375,9.03125 L 11.375,11.03125 L 11.875,10.53125 L 9.84375,8.53125 z M 17.25,8.53125 L 15.25,10.53125 L 15.75,11.03125 L 17.75,9.03125 L 17.25,8.53125 z M 13.5625,12.1875 L 11.03125,14.65625 L 9.84375,13.5 L 9.34375,14 L 11.03125,15.65625 L 13.5625,13.1875 L 16.0625,15.65625 L 17.75,14 L 17.25,13.5 L 16.0625,14.65625 L 13.5625,12.1875 z" transform="translate(3,2.9995677)"/><path style="opacity:.3;fill:#fff;fill-opacity:1;stroke:none;stroke-width:1.0000002400000001;stroke-linecap:round;stroke-linejoin:miter;stroke-miterlimit:4;stroke-dasharray:none;stroke-opacity:1" id="BevelHighlight" d="M 11.03125,6.375 L 9.34375,8.03125 L 9.84375,8.53125 L 11.03125,7.375 L 13.5625,9.84375 L 16.0625,7.375 L 17.25,8.53125 L 17.75,8.03125 L 16.0625,6.375 L 13.5625,8.84375 L 11.03125,6.375 z M 2,10.53125 L 2,11.53125 L 9.1875,18 L 20,18 L 20,17 L 9.1875,17 L 2,10.53125 z M 11.875,10.53125 L 9.34375,13 L 9.84375,13.5 L 11.875,11.53125 L 11.875,10.53125 z M 15.25,10.53125 L 15.25,11.53125 L 17.25,13.5 L 17.75,13 L 15.25,10.53125 z" transform="translate(3,2.9995677)"/></g></svg>