<svg xmlns="http://www.w3.org/2000/svg" xmlns:svg="http://www.w3.org/2000/svg" xmlns:xlink="http://www.w3.org/1999/xlink" id="svg2" width="22" height="22" version="1.0"><defs id="defs4"><linearGradient id="StandardGradient" x1="10.744" x2="10.744" y1="16.767" y2="3.686" gradientTransform="matrix(0.930775,0,0,-1.0743735,0,22)" gradientUnits="userSpaceOnUse"><stop id="stop3337" offset="0" style="stop-color:#000;stop-opacity:.86274511"/><stop id="stop3339" offset="1" style="stop-color:#000;stop-opacity:.47058824"/></linearGradient><linearGradient id="linearGradient2853" x1="10.744" x2="10.744" y1="16.767" y2="3.686" gradientTransform="matrix(0.930775,0,0,-1.0743735,-30,22)" gradientUnits="userSpaceOnUse" xlink:href="#StandardGradient"/><clipPath id="clipPath2860" clipPathUnits="userSpaceOnUse"><path style="fill:#f0f;fill-opacity:1;stroke:none;display:inline" id="path2862" d="m -30,0 0,22 22,0 0,-22 -22,0 z m 8,4 6.03125,0 0,5.03125 3.03125,0 L -19,18 -25.0625,9.03125 -22,9.03125 -22,4 z"/></clipPath><linearGradient id="linearGradient2840" x1="10.744" x2="10.744" y1="16.767" y2="3.686" gradientTransform="matrix(0.930775,0,0,-1.0743735,0,21)" gradientUnits="userSpaceOnUse" xlink:href="#StandardGradient"/><linearGradient id="linearGradient3629" x1="10.744" x2="10.744" y1="16.767" y2="1.862" gradientTransform="matrix(0.930775,0,0,-1.0743735,0,21)" gradientUnits="userSpaceOnUse" xlink:href="#StandardGradient"/><linearGradient id="linearGradient3633" x1="10.744" x2="10.744" y1="16.767" y2="1.862" gradientTransform="matrix(0.930775,0,0,-1.0743735,-30,21)" gradientUnits="userSpaceOnUse" xlink:href="#StandardGradient"/><clipPath id="clipPath3640" clipPathUnits="userSpaceOnUse"><path style="fill:#f0f;fill-opacity:1;stroke:none;display:inline" id="path3642" d="m -30,0 0,22 22,0 0,-22 -22,0 z m 8,3 6.03125,0 0,5.03125 3.03125,0 L -19,17 l 6,0 0,2 -12,0 0,-2 6,0 -6.0625,-8.96875 3.0625,0 L -22,3 z"/></clipPath><filter id="filter3644"><feGaussianBlur id="feGaussianBlur3646" stdDeviation=".422"/></filter><linearGradient id="linearGradient6059" x1="10.744" x2="10.744" y1="16.767" y2="1.862" gradientTransform="matrix(0.930775,0,0,-1.0743735,0,21)" gradientUnits="userSpaceOnUse" xlink:href="#StandardGradient"/><linearGradient id="linearGradient6063" x1="10.744" x2="10.744" y1="16.767" y2="1.862" gradientTransform="matrix(0.930775,0,0,-1.0743735,0,21)" gradientUnits="userSpaceOnUse" xlink:href="#StandardGradient"/></defs><metadata id="metadata7"/><g id="layer1" style="display:inline"><path style="fill:#fff;fill-opacity:1;stroke:none;display:inline;opacity:.15" id="path6061" d="M 7.8125 1.96875 A 1.0278751 1.0278751 0 0 0 6.96875 3 L 6.96875 7 L 4.9375 7 A 1.0278751 1.0278751 0 0 0 4.09375 8.59375 L 9.09375 15.96875 L 5 15.96875 A 1.0278751 1.0278751 0 0 0 3.96875 17 L 3.96875 19 A 1.0278751 1.0278751 0 0 0 5 20.03125 L 17 20.03125 A 1.0278751 1.0278751 0 0 0 18.03125 19 L 18.03125 17 A 1.0278751 1.0278751 0 0 0 17 15.96875 L 12.90625 15.96875 L 17.90625 8.59375 A 1.0278751 1.0278751 0 0 0 17.0625 7 L 15.0625 7 L 15.0625 3 A 1.0278751 1.0278751 0 0 0 14.03125 1.96875 L 8 1.96875 A 1.0278751 1.0278751 0 0 0 7.90625 1.96875 A 1.0278751 1.0278751 0 0 0 7.8125 1.96875 z M 8 3 L 14.03125 3 L 14.03125 8.03125 L 17.0625 8.03125 L 11 17 L 17 17 L 17 19 L 5 19 L 5 17 L 11 17 L 4.9375 8.03125 L 8 8.03125 L 8 3 z"/><path style="fill:url(#linearGradient3629);fill-opacity:1;stroke:none;display:inline" id="Symbol" d="M 8 3 L 8 8.03125 L 4.9375 8.03125 L 11 17 L 17.0625 8.03125 L 14.03125 8.03125 L 14.03125 3 L 8 3 z M 11 17 L 5 17 L 5 19 L 17 19 L 17 17 L 11 17 z"/><path style="opacity:.3;fill:#fff;fill-opacity:1;stroke:none;display:inline" id="BevelHighlight" d="M 4.9375 8.03125 L 4.9375 9.03125 L 10.3125 17 L 11 17 L 4.9375 8.03125 z M 11 17 L 11.6875 17 L 17.0625 9.03125 L 17.0625 8.03125 L 11 17 z M 5 19 L 5 20 L 17 20 L 17 19 L 5 19 z"/><path style="opacity:.5;fill:#1a1a1a;fill-opacity:1;stroke:none;display:inline" id="BevelShadow" d="M 8 3 L 8 4.03125 L 14.03125 4.03125 L 14.03125 3 L 8 3 z M 4.9375 8.03125 L 5.625 9.03125 L 8 9.03125 L 8 8.03125 L 4.9375 8.03125 z M 14.03125 8.03125 L 14.03125 9.03125 L 16.375 9.03125 L 17.0625 8.03125 L 14.03125 8.03125 z M 5 17 L 5 18 L 17 18 L 17 17 L 5 17 z"/></g></svg>