<svg xmlns="http://www.w3.org/2000/svg" xmlns:svg="http://www.w3.org/2000/svg" xmlns:xlink="http://www.w3.org/1999/xlink" id="svg2" width="22" height="22" version="1.0" style="display:inline"><defs id="defs4"><linearGradient id="linearGradient3327"><stop style="stop-color:#000;stop-opacity:1" id="stop3330" offset="0"/><stop style="stop-color:#000;stop-opacity:0" id="stop3333" offset="1"/></linearGradient><linearGradient id="linearGradient3335" x1="11.375" x2="11.375" y1="22" y2="-9.817" gradientUnits="userSpaceOnUse" xlink:href="#linearGradient3327"/><linearGradient id="linearGradient3181" x1="-3.061" x2="-3.061" y1="27.258" y2="7.254" gradientTransform="translate(11.119372,-6.2581977)" gradientUnits="userSpaceOnUse" xlink:href="#linearGradient3614-8"/><linearGradient id="ButtonShadow" x1="9.355" x2="9.355" y1="21.743" y2=".494" gradientTransform="scale(0.9883037,1.0118347)" gradientUnits="userSpaceOnUse"><stop id="stop3277" offset="0" style="stop-color:#000;stop-opacity:.70588237"/><stop id="stop3279" offset="1" style="stop-color:#000;stop-opacity:.15686275"/></linearGradient><linearGradient id="linearGradient3232"><stop style="stop-color:#000;stop-opacity:1" id="stop3234" offset="0"/><stop style="stop-color:#000;stop-opacity:0" id="stop3236" offset="1"/></linearGradient><linearGradient id="linearGradient3221" x1="11" x2="11" y1="14.806" y2="-6" gradientUnits="userSpaceOnUse" xlink:href="#linearGradient3232"/><linearGradient id="ButtonColor" x1="10.32" x2="10.32" y1="21" y2=".999" gradientUnits="userSpaceOnUse"><stop style="stop-color:#29669f;stop-opacity:1" id="stop3189" offset="0"/><stop style="stop-color:#88b6e0;stop-opacity:1" id="stop3191" offset="1"/></linearGradient><linearGradient id="linearGradient38042" x1="9.355" x2="9.355" y1="21.743" y2=".494" gradientTransform="scale(0.9883037,1.0118347)" gradientUnits="userSpaceOnUse" xlink:href="#ButtonShadow"/><filter id="filter3194" width="1.36" height="1.36" x="-.18" y="-.18" color-interpolation-filters="sRGB"><feGaussianBlur id="feGaussianBlur3196" stdDeviation="1.2"/></filter><clipPath id="clipPath2849" clipPathUnits="userSpaceOnUse"><rect id="rect2851" width="20" height="20" x="1" y="1" rx="2" ry="2" style="fill:#fff;fill-opacity:1;fill-rule:evenodd;stroke:none;display:inline"/></clipPath><linearGradient id="linearGradient3617" x1="48" x2="48" y1="90" y2="5.988" gradientUnits="userSpaceOnUse" xlink:href="#linearGradient3614"/><linearGradient id="linearGradient3614"><stop id="stop3616" offset="0" style="stop-color:#064096;stop-opacity:1"/><stop id="stop3618" offset="1" style="stop-color:#4484e5;stop-opacity:1"/></linearGradient><linearGradient id="linearGradient3835" x1="48" x2="48" y1="90" y2="5.988" gradientTransform="translate(-79,-26)" gradientUnits="userSpaceOnUse" xlink:href="#linearGradient3614"/><linearGradient id="linearGradient3777" x1="15" x2="106.506" y1="47.277" y2="47.025" gradientUnits="userSpaceOnUse" xlink:href="#linearGradient3771"/><linearGradient id="linearGradient3771"><stop style="stop-color:#154a99;stop-opacity:1" id="stop3773" offset="0"/><stop style="stop-color:#154a99;stop-opacity:0" id="stop3775" offset="1"/></linearGradient><linearGradient id="linearGradient3856" x1="45.79" x2="45.79" y1="78.067" y2="17.246" gradientTransform="matrix(0.24242424,0,0,0.24242462,-0.636364,1.878782)" gradientUnits="userSpaceOnUse" xlink:href="#linearGradient3731"/><linearGradient id="linearGradient3661" x1="-3.061" x2="-3.061" y1="27.258" y2="7.254" gradientTransform="translate(-18.880628,-4.2581977)" gradientUnits="userSpaceOnUse" xlink:href="#linearGradient3614"/><linearGradient id="linearGradient3665" x1="15" x2="106.506" y1="47.277" y2="47.025" gradientTransform="matrix(0.24242424,0,0,0.24242462,-30.636364,1.878782)" gradientUnits="userSpaceOnUse" xlink:href="#linearGradient3771"/><clipPath id="clipPath3676" clipPathUnits="userSpaceOnUse"><path style="fill:url(#linearGradient3680);fill-opacity:1;fill-rule:evenodd;stroke:none;display:inline" id="path3678" d="m -27,3 c -1.108,0 -2,0.892 -2,2 l 0,16 c 0,1.108 0.892,2 2,2 l 16,0 c 1.108,0 2,-0.892 2,-2 L -9,5 C -9,3.892 -9.892,3 -11,3 l -16,0 z m 8,3 c 4.418278,0 8,2.91629 8,6.53125 0,3.61496 -3.581722,6.5625 -8,6.5625 -0.657923,0 -1.294491,-0.06495 -1.90625,-0.1875 -0.82246,0.858473 -2.385922,2.003533 -4.71875,1.75 1.801148,-0.509136 2.19771,-2.016816 2.28125,-2.625 C -25.540778,16.864511 -27,14.833905 -27,12.53125 -27,8.91629 -23.418278,6 -19,6 z"/></clipPath><linearGradient id="linearGradient3680" x1="-3.061" x2="-3.061" y1="27.258" y2="7.254" gradientTransform="translate(-18.880628,-4.2581977)" gradientUnits="userSpaceOnUse" xlink:href="#linearGradient3614"/><filter id="filter3682" width="1.46" height="1.502" x="-.23" y="-.251" color-interpolation-filters="sRGB"><feGaussianBlur id="feGaussianBlur3684" stdDeviation="1.534"/></filter><linearGradient id="linearGradient3703" x1="46.125" x2="46.125" y1="63.048" y2="24.84" gradientUnits="userSpaceOnUse" xlink:href="#linearGradient3697"/><linearGradient id="linearGradient3697"><stop style="stop-color:#dcdcdc;stop-opacity:1" id="stop3699" offset="0"/><stop style="stop-color:#f0f0f0;stop-opacity:1" id="stop3701" offset="1"/></linearGradient><linearGradient id="linearGradient3761" x1="46.125" x2="46.125" y1="63.048" y2="24.84" gradientUnits="userSpaceOnUse" xlink:href="#linearGradient3697"/><linearGradient id="linearGradient3875"><stop style="stop-color:#dcdcdc;stop-opacity:1" id="stop3877" offset="0"/><stop style="stop-color:#f0f0f0;stop-opacity:1" id="stop3879" offset="1"/></linearGradient><linearGradient id="linearGradient3883" x1="46.125" x2="46.125" y1="63.048" y2="24.84" gradientUnits="userSpaceOnUse" xlink:href="#linearGradient3697"/><linearGradient id="linearGradient3617-7" x1="48" x2="48" y1="90" y2="5.988" gradientUnits="userSpaceOnUse" xlink:href="#linearGradient3614-7"/><linearGradient id="linearGradient3614-7"><stop id="stop3616-6" offset="0" style="stop-color:#418f0d;stop-opacity:1"/><stop id="stop3618-7" offset="1" style="stop-color:#8bdb14;stop-opacity:1"/></linearGradient><linearGradient id="linearGradient4222" x1="48" x2="48" y1="90" y2="5.988" gradientTransform="translate(-78.265018,-32.360424)" gradientUnits="userSpaceOnUse" xlink:href="#linearGradient3614-7"/><linearGradient id="linearGradient4190" x1="71.672" x2="71.672" y1="62.025" y2="26.414" gradientTransform="translate(-25,-0.34739)" gradientUnits="userSpaceOnUse" xlink:href="#linearGradient3697-0"/><linearGradient id="linearGradient3697-0"><stop style="stop-color:#dcdcdc;stop-opacity:1" id="stop3699-5" offset="0"/><stop style="stop-color:#f0f0f0;stop-opacity:1" id="stop3701-6" offset="1"/></linearGradient><linearGradient id="linearGradient4241" x1="71.672" x2="71.672" y1="62.025" y2="26.414" gradientTransform="translate(-61.612113,-28.872125)" gradientUnits="userSpaceOnUse" xlink:href="#linearGradient3697-0"/><linearGradient id="linearGradient3700" x1="71.672" x2="71.672" y1="62.025" y2="26.414" gradientTransform="matrix(0.24908185,-0.02140634,0.02140634,0.24908185,-8.2754266,1.0033486)" gradientUnits="userSpaceOnUse" xlink:href="#linearGradient3697-0"/><linearGradient id="linearGradient3664" x1="48.082" x2="46.655" y1="75.562" y2="16.973" gradientTransform="translate(-94.526458,-39.885159)" gradientUnits="userSpaceOnUse" xlink:href="#linearGradient3731"/><linearGradient id="linearGradient3731"><stop id="stop3733" offset="0" style="stop-color:#dcdcdc;stop-opacity:1"/><stop style="stop-color:#ebebeb;stop-opacity:1" id="stop3757" offset=".307"/><stop style="stop-color:#fff;stop-opacity:1" id="stop3737" offset=".707"/><stop id="stop3759" offset=".845" style="stop-color:#fafafa;stop-opacity:1"/><stop id="stop3735" offset="1" style="stop-color:#f0f0f0;stop-opacity:1"/></linearGradient><linearGradient id="linearGradient3617-8" x1="48" x2="48" y1="90" y2="5.988" gradientUnits="userSpaceOnUse" xlink:href="#linearGradient3614-8"/><linearGradient id="linearGradient3614-8"><stop id="stop3616-4" offset="0" style="stop-color:#65a31b;stop-opacity:1"/><stop id="stop3618-3" offset="1" style="stop-color:#a0de42;stop-opacity:1"/></linearGradient><linearGradient id="linearGradient2936" x1="48" x2="48" y1="90" y2="5.988" gradientTransform="translate(-94.526458,-40.885159)" gradientUnits="userSpaceOnUse" xlink:href="#linearGradient3614-8"/><linearGradient id="linearGradient3712" x1="45.79" x2="45.79" y1="78.067" y2="17.246" gradientTransform="matrix(0.24242424,0,0,0.24242462,-0.636364,2.878782)" gradientUnits="userSpaceOnUse" xlink:href="#linearGradient3731"/><linearGradient id="linearGradient3714" x1="45.79" x2="45.79" y1="78.067" y2="17.246" gradientTransform="matrix(0.24242424,0,0,0.24242462,-0.636364,-0.121218)" gradientUnits="userSpaceOnUse" xlink:href="#linearGradient3731"/><linearGradient id="linearGradient3727" x1="45.79" x2="45.79" y1="78.067" y2="17.246" gradientTransform="matrix(0.24242424,0,0,0.24242462,-0.636364,-18.121218)" gradientUnits="userSpaceOnUse" xlink:href="#linearGradient3731"/><linearGradient id="linearGradient3735" x1="71.672" x2="71.672" y1="62.025" y2="26.414" gradientTransform="matrix(0.24908185,-0.02140634,0.02140634,0.24908185,-8.2754266,3.5131813)" gradientUnits="userSpaceOnUse" xlink:href="#linearGradient3697-0"/><linearGradient id="linearGradient3743" x1="45.79" x2="45.79" y1="78.067" y2="17.246" gradientTransform="matrix(0.24242424,0,0,0.24242462,-0.636364,2.878782)" gradientUnits="userSpaceOnUse" xlink:href="#linearGradient3731"/><linearGradient id="linearGradient3745" x1="45.79" x2="45.79" y1="78.067" y2="17.246" gradientTransform="matrix(0.24242424,0,0,0.24242462,-0.636364,1.878782)" gradientUnits="userSpaceOnUse" xlink:href="#linearGradient3731"/><linearGradient id="linearGradient3845" x1="11" x2="21" y1="19.5" y2="19.5" gradientUnits="userSpaceOnUse" spreadMethod="reflect" xlink:href="#linearGradient3831"/><linearGradient id="linearGradient3831"><stop style="stop-color:#fff;stop-opacity:1" id="stop3833" offset="0"/><stop id="stop3821" offset=".75" style="stop-color:#fff;stop-opacity:.49803922"/><stop style="stop-color:#fff;stop-opacity:0" id="stop3835" offset="1"/></linearGradient><linearGradient id="linearGradient3084" x1="10" x2="10" y1="1" y2="16" gradientUnits="userSpaceOnUse" xlink:href="#linearGradient3823"/><linearGradient id="linearGradient3823"><stop id="stop3825" offset="0" style="stop-color:#fff;stop-opacity:1"/><stop id="stop3829" offset="1" style="stop-color:#fff;stop-opacity:0"/></linearGradient><linearGradient id="linearGradient3101" x1="10" x2="10" y1="1" y2="16" gradientUnits="userSpaceOnUse" xlink:href="#linearGradient3823"/></defs><metadata id="metadata7"/><g id="layer1"><g style="display:inline" id="g3337"><rect id="rect3371" width="21" height="21.5" x=".5" y=".5" rx="2.5" ry="2.5" style="opacity:.3;fill:url(#linearGradient3335);fill-opacity:1;stroke:none;display:inline"/><rect style="opacity:.5;fill:#000;fill-opacity:1;stroke:none;display:inline" id="rect2553" width="20" height="20" x="1" y="2" rx="2.381" ry="2.326"/></g><rect style="fill:url(#linearGradient3181);fill-opacity:1;fill-rule:evenodd;stroke:none;display:inline" id="rect3173" width="20" height="20" x="1" y="1" rx="2" ry="2"/><path style="opacity:.4;fill:url(#linearGradient3101);fill-opacity:1;fill-rule:evenodd;stroke:none;display:inline" id="rect3050" d="M 3,1 C 1.892,1 1,1.892 1,3 l 0,16 c 0,1.108 0.892,2 2,2 l 16,0 c 1.108,0 2,-0.892 2,-2 L 21,3 C 21,1.892 20.108,1 19,1 L 3,1 z m 0,1.03125 16,0 c 0.5497,0 0.96875,0.4190495 0.96875,0.96875 l 0,16 c 0,0.5497 -0.41905,0.96875 -0.96875,0.96875 l -16,0 C 2.4502995,19.96875 2.03125,19.5497 2.03125,19 l 0,-16 C 2.03125,2.4502995 2.4502995,2.03125 3,2.03125 z"/><path id="path3235" d="M 3,21 C 1.892,21 1,20.108 1,19 l 0,-1 c 0,1.108 0.892,2 2,2 l 16,0 c 1.108,0 2,-0.892 2,-2 l 0,1 c 0,1.108 -0.892,2 -2,2 L 3,21 z" style="opacity:.2;fill:url(#linearGradient3845);fill-opacity:1;fill-rule:evenodd;stroke:none;display:inline"/></g><g id="layer4" transform="translate(0,-2)" style="display:inline"><path style="opacity:.08;fill:#000;fill-opacity:1;stroke:none;display:inline" id="path3698" d="m 11,5.46875 c -4.8753126,0 -9.03125,3.2685255 -9.03125,7.5625 0,2.443331 1.4253191,4.518175 3.46875,5.875 -0.033118,0.124 -0.034823,0.267079 -0.125,0.40625 -0.2321251,0.358242 -0.5616964,0.689269 -1.21875,0.875 3.922e-4,-1.32e-4 -0.062886,1.48e-4 -0.0625,0 3.864e-4,-1.48e-4 -0.03163,0.03141 -0.03125,0.03125 3.801e-4,-1.63e-4 -0.031623,1.79e-4 -0.03125,0 3.731e-4,-1.79e-4 -0.031615,0.03144 -0.03125,0.03125 3.654e-4,-1.94e-4 -0.062857,0.03146 -0.0625,0.03125 3.572e-4,-2.09e-4 -0.031598,2.23e-4 -0.03125,0 3.483e-4,-2.23e-4 -0.031589,0.03149 -0.03125,0.03125 3.389e-4,-2.37e-4 -0.031579,0.0315 -0.03125,0.03125 3.289e-4,-2.51e-4 -0.031568,0.03151 -0.03125,0.03125 3.183e-4,-2.64e-4 -0.031557,0.03153 -0.03125,0.03125 3.072e-4,-2.77e-4 -0.031546,0.03154 -0.03125,0.03125 2.956e-4,-2.89e-4 -0.031534,0.03155 -0.03125,0.03125 2.835e-4,-3.01e-4 -0.031521,0.03156 -0.03125,0.03125 2.709e-4,-3.13e-4 -0.031508,0.03157 -0.03125,0.03125 2.579e-4,-3.24e-4 -0.031494,0.03158 -0.03125,0.03125 2.444e-4,-3.34e-4 -2.305e-4,0.03159 0,0.03125 2.305e-4,-3.44e-4 -0.031466,0.0316 -0.03125,0.03125 2.163e-4,-3.53e-4 -0.031452,0.03161 -0.03125,0.03125 2.017e-4,-3.61e-4 -1.867e-4,0.03162 0,0.03125 1.867e-4,-3.69e-4 -0.031421,0.06288 -0.03125,0.0625 1.714e-4,-3.77e-4 -0.031406,0.03163 -0.03125,0.03125 1.558e-4,-3.83e-4 -1.4e-4,0.03164 0,0.03125 1.4e-4,-3.89e-4 -1.24e-4,0.03165 0,0.03125 1.24e-4,-3.95e-4 -0.031358,0.0629 -0.03125,0.0625 1.077e-4,-3.99e-4 -9.12e-5,0.03165 0,0.03125 9.12e-5,-4.04e-4 -7.46e-5,0.03166 0,0.03125 7.46e-5,-4.07e-4 -0.031308,0.06291 -0.03125,0.0625 5.79e-5,-4.1e-4 -4.11e-5,0.03166 0,0.03125 4.11e-5,-4.12e-4 -2.42e-5,0.03166 0,0.03125 2.42e-5,-4.13e-4 -7.2e-6,0.06291 0,0.0625 7.2e-6,-4.14e-4 9.7e-6,0.03166 0,0.03125 -9.7e-6,-4.14e-4 2.66e-5,0.03166 0,0.03125 -2.66e-5,-4.13e-4 4.35e-5,0.06291 0,0.0625 -4.35e-5,-4.11e-4 6.03e-5,0.03166 0,0.03125 -6.03e-5,-4.09e-4 0.031327,0.03166 0.03125,0.03125 -7.71e-5,-4.06e-4 9.36e-5,0.0629 0,0.0625 -9.36e-5,-4.03e-4 1.101e-4,0.03165 0,0.03125 -1.101e-4,-3.99e-4 0.031376,0.03164 0.03125,0.03125 -1.263e-4,-3.94e-4 1.423e-4,0.06289 0,0.0625 -1.423e-4,-3.88e-4 0.031408,0.03163 0.03125,0.03125 -1.581e-4,-3.82e-4 1.737e-4,0.03163 0,0.03125 -1.737e-4,-3.76e-4 0.031439,0.03162 0.03125,0.03125 -1.889e-4,-3.68e-4 2.038e-4,0.06286 0,0.0625 -2.038e-4,-3.6e-4 0.031468,0.0316 0.03125,0.03125 -2.184e-4,-3.51e-4 0.031483,0.03159 0.03125,0.03125 -2.326e-4,-3.42e-4 0.031496,0.03158 0.03125,0.03125 -2.464e-4,-3.32e-4 2.598e-4,0.03157 0,0.03125 -2.598e-4,-3.22e-4 0.031523,0.03156 0.03125,0.03125 -2.728e-4,-3.11e-4 0.031535,0.03155 0.03125,0.03125 -2.853e-4,-3e-4 0.031547,0.03154 0.03125,0.03125 -2.973e-4,-2.88e-4 0.031559,0.03152 0.03125,0.03125 -3.089e-4,-2.75e-4 0.03157,0.03151 0.03125,0.03125 -3.199e-4,-2.62e-4 0.03158,0.0315 0.03125,0.03125 -3.304e-4,-2.49e-4 0.03159,2.35e-4 0.03125,0 -3.403e-4,-2.35e-4 0.0316,0.03147 0.03125,0.03125 -3.496e-4,-2.21e-4 0.062858,0.03146 0.0625,0.03125 -3.584e-4,-2.07e-4 0.031617,0.03144 0.03125,0.03125 -3.666e-4,-1.92e-4 0.031624,1.77e-4 0.03125,0 -3.741e-4,-1.77e-4 0.031631,0.03141 0.03125,0.03125 -3.81e-4,-1.61e-4 0.031637,1.45e-4 0.03125,0 -3.873e-4,-1.45e-4 0.062893,0.03138 0.0625,0.03125 -3.929e-4,-1.29e-4 0.031648,1.13e-4 0.03125,0 -3.979e-4,-1.13e-4 0.031652,9.7e-5 0.03125,0 -4.022e-4,-9.7e-5 0.062906,0.03133 0.0625,0.03125 a 0.53259465,0.53259465 0 0 0 0.03125,0 C 6.6350666,22.446711 8.3691656,21.427183 9.40625,20.5 9.9238636,20.57929 10.449025,20.625 11,20.625 c 4.87995,0 9.03125,-3.299989 9.03125,-7.59375 0,-4.2939745 -4.155938,-7.5625 -9.03125,-7.5625 z M 11.21875,9.5 c 0.132806,-0.011409 0.04149,-0.041622 0.09375,0 -0.09833,0.1085613 0.06131,0.023299 -0.03125,0.03125 -0.03178,0.00273 -0.05881,-0.028586 -0.0625,-0.03125 z"/><path style="opacity:.3;fill:#000;fill-opacity:1;stroke:none;display:inline" id="path3729" d="m 11,-13.5 c -4.418278,0 -8,2.930505 -8,6.545465 0,2.302655 1.454487,4.325694 3.651515,5.492433 C 6.567965,-0.853918 6.187512,0.634826 4.386364,1.143962 6.719191,1.397495 8.268449,0.260008 9.090909,-0.598465 9.702668,-0.475919 10.342077,-0.40907 11,-0.40907 c 4.418278,0 8,-2.930505 8,-6.545465 C 19,-10.569495 15.418278,-13.5 11,-13.5 z"/><path style="opacity:.15;fill:#000;fill-opacity:1;stroke:none;display:inline" id="path3694" d="m 11,6 c -4.6392602,0 -8.5,3.0845725 -8.5,7.03125 0,2.376623 1.440401,4.421309 3.5625,5.6875 -0.05574,0.259438 -0.095431,0.539995 -0.3125,0.875 -0.2794431,0.431268 -0.715005,0.871853 -1.5,1.09375 a 0.50224361,0.50224361 0 0 0 0.0625,0.96875 c 2.3546049,0.2559 4.0051124,-0.820225 4.9375,-1.71875 0.5688987,0.09942 1.145647,0.15625 1.75,0.15625 4.641628,0 8.5,-3.115823 8.5,-7.0625 C 19.5,9.0845725 15.63926,6 11,6 z m 0.1875,2.96875 c 0.219015,-0.018816 0.342397,0.024356 0.46875,0.125 0.147102,0.1151113 0.206064,0.1961581 0.21875,0.34375 0.0123,0.1431169 -0.03083,0.2676105 -0.15625,0.40625 -0.127815,0.1411082 -0.215038,0.202324 -0.40625,0.21875 -0.181227,0.01558 -0.30963,-0.03411 -0.46875,-0.15625 C 10.696661,9.7911611 10.637685,9.7101118 10.625,9.5625 10.612437,9.4163163 10.640225,9.3433965 10.78125,9.1875 10.91358,9.0412233 10.992138,8.9855455 11.1875,8.96875 z m -0.78125,3.125 c 0.384971,-0.03308 0.637054,0.03905 0.75,0.125 0.13675,0.10059 0.229422,0.22987 0.25,0.46875 0.001,0.01181 0.0033,0.158548 0,0.34375 3.32e-4,0.127096 -0.03129,0.256675 -0.0625,0.40625 l -0.3125,1.6875 c -0.03143,0.161157 -0.04581,0.346626 -0.0625,0.53125 -0.01394,0.154403 -0.05035,0.246409 -0.03125,0.46875 0.02545,0.296073 0.113591,0.614982 0.40625,0.8125 -0.0907,0.01927 -0.144561,0.05344 -0.25,0.0625 -0.35251,0.03029 -0.590835,-0.0479 -0.75,-0.15625 -0.165173,-0.123937 -0.230247,-0.207676 -0.25,-0.4375 -0.008,-0.09297 -0.0069,-0.212076 0,-0.34375 0.0074,-0.15298 0.01539,-0.283838 0.03125,-0.40625 0.0012,-0.0094 -0.0014,-0.02178 0,-0.03125 l 0.3125,-1.6875 c 0.03079,-0.178933 0.0472,-0.349454 0.0625,-0.5 0.01525,-0.124754 0.04932,-0.258489 0.03125,-0.46875 -0.02657,-0.309064 -0.131649,-0.616727 -0.375,-0.8125 0.08273,-0.01615 0.164903,-0.05518 0.25,-0.0625 z"/><path style="opacity:.3;fill:#000;fill-opacity:1;stroke:none;display:inline" id="path3717" d="m 11,6.5 c -4.418278,0 -8,2.9162898 -8,6.53125 0,2.302655 1.459222,4.333261 3.65625,5.5 -0.08355,0.608184 -0.480102,2.115864 -2.28125,2.625 2.332827,0.253533 3.89629,-0.891527 4.71875,-1.75 0.611759,0.122546 1.248327,0.1875 1.90625,0.1875 4.418278,0 8,-2.94754 8,-6.5625 C 19,9.4162898 15.418278,6.5 11,6.5 z m 0.15625,1.96875 c 0.307436,-0.026412 0.578538,0.032393 0.8125,0.21875 0.237753,0.1860486 0.381456,0.4302987 0.40625,0.71875 0.02479,0.288469 -0.07873,0.5573793 -0.28125,0.78125 -0.199059,0.219762 -0.442564,0.34859 -0.75,0.375 -0.30744,0.02643 -0.575073,-0.06775 -0.8125,-0.25 -0.237757,-0.186032 -0.38146,-0.4302812 -0.40625,-0.71875 -0.02479,-0.2884516 0.07872,-0.5261132 0.28125,-0.75 0.202525,-0.2238694 0.44256,-0.348569 0.75,-0.375 z m -0.78125,3.125 c 0.451665,-0.03881 0.831913,0.01949 1.09375,0.21875 0.2653,0.195148 0.40742,0.494566 0.4375,0.84375 0.0062,0.07212 0.0033,0.191186 0,0.375 4.8e-4,0.183494 -0.03001,0.344269 -0.0625,0.5 l -0.3125,1.6875 c -0.02654,0.136106 -0.04682,0.295343 -0.0625,0.46875 -0.01565,0.17341 -0.03875,0.31895 -0.03125,0.40625 0.01892,0.220144 0.08196,0.36627 0.1875,0.4375 0.105531,0.07121 0.288333,0.08338 0.53125,0.0625 0.113863,-0.0098 0.265279,-0.0434 0.40625,-0.09375 0.140638,-0.05415 0.21933,-0.08909 0.28125,-0.125 l -0.0625,0.53125 c -0.36304,0.180318 -0.65759,0.31109 -0.875,0.40625 -0.217089,0.09895 -0.4852,0.16206 -0.78125,0.1875 -0.455465,0.03914 -0.820531,-0.05171 -1.09375,-0.25 -0.269751,-0.202407 -0.40814,-0.470901 -0.4375,-0.8125 -0.0115,-0.132843 -0.0072,-0.267977 0,-0.40625 C 9.60066,15.889189 9.59825,15.740684 9.625,15.5625 L 9.9375,13.84375 C 9.96555,13.680754 9.9855,13.517723 10,13.375 10.01795,13.228166 10.04136,13.117667 10.03125,13 10.01298,12.787456 9.93822,12.6385 9.84375,12.5625 c -0.094473,-0.07599 -0.253292,-0.11495 -0.5,-0.09375 -0.121458,0.01044 -0.249214,0.04471 -0.375,0.09375 -0.12199,0.04873 -0.22434,0.11427 -0.3125,0.15625 L 8.75,12.1875 c 0.296674,-0.151669 0.570383,-0.294813 0.84375,-0.40625 0.27304,-0.115231 0.530743,-0.16596 0.78125,-0.1875 z"/><path id="path3668" d="m -19,6 c -4.418278,0 -8,2.930505 -8,6.545465 0,2.302655 1.454487,4.325694 3.651515,5.492433 -0.08354,0.608184 -0.464003,2.096928 -2.265151,2.606064 2.332828,0.253533 3.882085,-0.883954 4.704545,-1.742427 0.611759,0.122546 1.251168,0.189395 1.909091,0.189395 4.418278,0 8,-2.930505 8,-6.545465 C -11,8.930505 -14.581722,6 -19,6 z" clip-path="url(#clipPath3676)" transform="translate(30,0)" style="opacity:.2;fill:#fff;fill-opacity:1;stroke:none;display:inline;filter:url(#filter3682)"/><path style="fill:url(#linearGradient3856);fill-opacity:1;stroke:none;display:inline" id="path3620" d="m 11,6 c -4.418278,0 -8,2.91629 -8,6.53125 0,2.302655 1.459222,4.333261 3.65625,5.5 -0.08355,0.608184 -0.480102,2.115864 -2.28125,2.625 2.332827,0.253533 3.89629,-0.891527 4.71875,-1.75 0.611759,0.122546 1.248327,0.1875 1.90625,0.1875 4.418278,0 8,-2.94754 8,-6.5625 C 19,8.91629 15.418278,6 11,6 z m 0.15625,1.9375 c 0.307436,-0.026412 0.578538,0.063643 0.8125,0.25 0.237753,0.1860486 0.381456,0.4302987 0.40625,0.71875 0.02479,0.288469 -0.07873,0.5261296 -0.28125,0.75 -0.199059,0.2197627 -0.442564,0.348586 -0.75,0.375 C 11.03631,10.05768 10.768677,9.994751 10.53125,9.8125 10.293493,9.6264678 10.14979,9.3822188 10.125,9.09375 10.10021,8.8052984 10.20372,8.5363868 10.40625,8.3125 c 0.202525,-0.2238694 0.44256,-0.348569 0.75,-0.375 z m -0.78125,3.125 c 0.451665,-0.03881 0.831913,0.05074 1.09375,0.25 0.2653,0.195148 0.407417,0.463317 0.4375,0.8125 0.0062,0.07212 0.0033,0.191186 0,0.375 4.8e-4,0.183494 -0.03001,0.375519 -0.0625,0.53125 l -0.3125,1.6875 c -0.02654,0.136106 -0.04682,0.295343 -0.0625,0.46875 -0.01565,0.17341 -0.03875,0.2877 -0.03125,0.375 0.01892,0.220144 0.08196,0.36627 0.1875,0.4375 0.105531,0.07121 0.288333,0.11463 0.53125,0.09375 0.113863,-0.0098 0.265279,-0.0434 0.40625,-0.09375 0.140638,-0.05415 0.21933,-0.08909 0.28125,-0.125 l -0.0625,0.5 c -0.36304,0.180318 -0.65759,0.31109 -0.875,0.40625 -0.217089,0.09895 -0.4852,0.16206 -0.78125,0.1875 -0.455465,0.03914 -0.820531,-0.02046 -1.09375,-0.21875 -0.269751,-0.202407 -0.40814,-0.470901 -0.4375,-0.8125 -0.0115,-0.132843 -0.0072,-0.267977 0,-0.40625 0.00691,-0.142061 0.0045,-0.321816 0.03125,-0.5 l 0.3125,-1.6875 C 9.96555,13.180754 9.9855,13.017723 10,12.875 c 0.01795,-0.146834 0.04136,-0.257333 0.03125,-0.375 -0.01827,-0.212544 -0.09303,-0.3615 -0.1875,-0.4375 -0.094473,-0.07599 -0.253292,-0.114947 -0.5,-0.09375 -0.121458,0.01044 -0.249214,0.04471 -0.375,0.09375 -0.12199,0.04873 -0.22434,0.08302 -0.3125,0.125 L 8.75,11.6875 C 9.046674,11.535831 9.320383,11.392686 9.59375,11.28125 9.86679,11.166023 10.124493,11.084035 10.375,11.0625 z"/><path id="path3725" d="m 11,-14 c -4.418278,0 -8,2.930505 -8,6.545465 0,2.302655 1.454487,4.325694 3.651515,5.492433 C 6.567965,-1.353918 6.187512,0.134826 4.386364,0.643962 6.719191,0.897495 8.268449,-0.239992 9.090909,-1.098465 9.702668,-0.975919 10.342077,-0.90907 11,-0.90907 c 4.418278,0 8,-2.930505 8,-6.545465 C 19,-11.069495 15.418278,-14 11,-14 z" style="fill:url(#linearGradient3727);fill-opacity:1;stroke:none;display:inline"/><path style="fill:#fff;fill-opacity:1;stroke:none;display:inline" id="path3739" d="M 11,6 C 6.581722,6 3,8.91629 3,12.53125 3,12.64866 3.023758,12.759083 3.03125,12.875 3.4409299,9.5759716 6.8578644,7 11,7 15.142136,7 18.55907,9.5759716 18.96875,12.875 18.976362,12.757927 19,12.64984 19,12.53125 19,8.91629 15.418278,6 11,6 z m 1.21875,3.46875 c -0.04024,0.064784 -0.06901,0.1256064 -0.125,0.1875 -0.199059,0.2197627 -0.442564,0.348586 -0.75,0.375 -0.30744,0.02643 -0.575073,-0.036499 -0.8125,-0.21875 -0.1064,-0.083252 -0.183501,-0.1759345 -0.25,-0.28125 -0.101226,0.1759489 -0.173847,0.3577442 -0.15625,0.5625 0.02479,0.288469 0.168493,0.532718 0.40625,0.71875 0.237427,0.18225 0.50506,0.24518 0.8125,0.21875 0.307436,-0.02641 0.550941,-0.155237 0.75,-0.375 0.20252,-0.22387 0.30604,-0.461531 0.28125,-0.75 -0.0137,-0.1593654 -0.07415,-0.3074797 -0.15625,-0.4375 z m -2.3125,2.6875 C 9.8048074,12.18929 9.6993067,12.2367 9.59375,12.28125 9.320383,12.392686 9.046674,12.535831 8.75,12.6875 l -0.09375,0.5 c 0.08816,-0.04198 0.19051,-0.07627 0.3125,-0.125 0.125786,-0.04904 0.253542,-0.08331 0.375,-0.09375 0.246708,-0.0212 0.405527,0.01776 0.5,0.09375 0.041475,0.03337 0.094235,0.0643 0.125,0.125 C 9.983952,13.080822 9.990376,12.969733 10,12.875 10.01795,12.728166 10.04136,12.617667 10.03125,12.5 10.01811,12.347072 9.964185,12.23985 9.90625,12.15625 z m 1.9375,0.78125 c -0.0054,0.02907 0.0057,0.06664 0,0.09375 l -0.3125,1.6875 c -0.02654,0.136106 -0.04682,0.295343 -0.0625,0.46875 -0.01565,0.17341 -0.03875,0.2877 -0.03125,0.375 0.0095,0.110072 0.03118,0.208297 0.0625,0.28125 0.0063,-0.04006 0.02406,-0.08815 0.03125,-0.125 l 0.3125,-1.6875 c 0.03249,-0.155731 0.06298,-0.347756 0.0625,-0.53125 0.0033,-0.183814 0.0062,-0.30288 0,-0.375 -0.0061,-0.071 -0.04703,-0.123135 -0.0625,-0.1875 z M 9.625,16.0625 c -0.02182,0.167132 -0.02477,0.335533 -0.03125,0.46875 -0.0072,0.138273 -0.0115,0.273407 0,0.40625 0.02936,0.341599 0.167749,0.610093 0.4375,0.8125 0.273219,0.19829 0.638285,0.25789 1.09375,0.21875 0.29605,-0.02544 0.564161,-0.08855 0.78125,-0.1875 0.21741,-0.09516 0.51196,-0.225932 0.875,-0.40625 l 0.0625,-0.5 C 12.78183,16.91091 12.703138,16.94585 12.5625,17 12.421529,17.05035 12.270113,17.08395 12.15625,17.09375 11.913333,17.11463 11.730531,17.07121 11.625,17 11.59025,16.97655 11.55673,16.94591 11.53125,16.90625 11.40008,16.93758 11.273025,16.95603 11.125,16.96875 10.669535,17.007893 10.304469,16.948286 10.03125,16.75 9.7973166,16.574469 9.6759123,16.342013 9.625,16.0625 z M 6.40625,18.875 C 6.1293774,19.538045 5.5713246,20.318081 4.375,20.65625 4.9582068,20.71963 5.4812706,20.71011 5.96875,20.625 6.4471791,20.034821 6.6075125,19.386024 6.65625,19.03125 6.5674,18.98407 6.4926393,18.924971 6.40625,18.875 z"/></g><g id="layer2" style="display:none"><rect style="opacity:.15;fill:#fff;fill-opacity:1;fill-rule:nonzero;stroke:none;display:inline;filter:url(#filter3194)" id="rect2410" width="16" height="16" x="3" y="3" clip-path="url(#clipPath2849)" rx="2" ry="2"/></g></svg>