<svg xmlns="http://www.w3.org/2000/svg" xmlns:svg="http://www.w3.org/2000/svg" xmlns:xlink="http://www.w3.org/1999/xlink" id="svg9434" width="16" height="16" version="1.1"><defs id="defs9436"><linearGradient id="linearGradient9999"><stop style="stop-color:#aeafac;stop-opacity:1" id="stop10001" offset="0"/><stop style="stop-color:#40413e;stop-opacity:1" id="stop10003" offset="1"/></linearGradient><linearGradient id="linearGradient9991"><stop style="stop-color:#fff;stop-opacity:1" id="stop9993" offset="0"/><stop style="stop-color:#fff;stop-opacity:0" id="stop9995" offset="1"/></linearGradient><linearGradient id="linearGradient9968"><stop style="stop-color:#fcfcfc;stop-opacity:1" id="stop9970" offset="0"/><stop style="stop-color:#d3d7cf;stop-opacity:1" id="stop9972" offset="1"/></linearGradient><linearGradient id="linearGradient9958"><stop style="stop-color:#babdb6;stop-opacity:1" id="stop9960" offset="0"/><stop style="stop-color:#545551;stop-opacity:1" id="stop9962" offset="1"/></linearGradient><linearGradient id="linearGradient9964" x1="7.708" x2="7.708" y1="-.1" y2="16.241" gradientUnits="userSpaceOnUse" xlink:href="#linearGradient9958"/><radialGradient id="radialGradient9974" cx="7.926" cy="3.892" r="8.533" fx="7.926" fy="3.892" gradientTransform="matrix(1.0793799,0,0,1.0793799,-0.62915033,-0.30897821)" gradientUnits="userSpaceOnUse" xlink:href="#linearGradient9968"/><radialGradient id="radialGradient9997" cx="8.013" cy="5.999" r="8.533" fx="8.013" fy="5.999" gradientTransform="matrix(3.5600338,0.02107361,-0.00901442,1.5228365,-20.627114,-3.3039688)" gradientUnits="userSpaceOnUse" xlink:href="#linearGradient9991"/><radialGradient id="radialGradient10005" cx="7.818" cy="5.152" r="5" fx="7.818" fy="5.152" gradientTransform="matrix(4.4249531,0.00559567,-0.00268791,2.1255406,-26.766919,-7.494981)" gradientUnits="userSpaceOnUse" xlink:href="#linearGradient9999"/></defs><metadata id="metadata9439"/><g id="layer1" transform="translate(0,-1036.3622)"><path style="color:#000;fill:url(#radialGradient9974);stroke:url(#linearGradient9964);stroke-width:1.06666671999999996;stroke-miterlimit:4;stroke-dasharray:none;marker:none;visibility:visible;display:inline;overflow:visible;enable-background:accumulate;fill-opacity:1" id="path9446" d="M 16,8 A 8,8 0 1 1 0,8 8,8 0 1 1 16,8 z" transform="matrix(0.9375,0,0,0.9375,0.5,1036.8622)"/><path style="color:#000;fill:url(#radialGradient10005);fill-opacity:1;fill-rule:nonzero;stroke:none;stroke-width:1;marker:none;visibility:visible;display:inline;overflow:visible;enable-background:accumulate" id="path9982" d="M 7.5 1 C 7.4261073 1 7.354006 1.0267374 7.28125 1.03125 C 6.9461645 1.0520335 6.615496 1.1102231 6.3125 1.21875 C 6.2510359 1.2407652 6.1848192 1.2559486 6.125 1.28125 C 3.1693988 2.1008788 1 4.7834025 1 8 C 1 11.865993 4.1340068 15 8 15 C 8.1153415 15 8.2297754 15.0055 8.34375 15 C 6.4829455 14.918606 5 13.380864 5 11.5 C 5 9.7337601 6.2996271 8.207625 8 7.96875 C 9.6990013 7.7286589 11 6.2652648 11 4.5 C 11 2.7347352 9.6990013 1.2713411 8 1.03125 C 7.999374 1.0228493 8.0005937 1.0083125 8 1 C 7.8846585 1 7.7702246 0.9944845 7.65625 1 C 7.6046731 0.99774395 7.5521329 1 7.5 1 z" transform="translate(0,1036.3622)"/><path id="path9989" d="M 16,8 A 8,8 0 1 1 0,8 8,8 0 1 1 16,8 z" transform="matrix(0.8125,0,0,0.8125,1.5,1037.8622)" style="color:#000;fill:none;stroke:url(#radialGradient9997);stroke-width:1.23076928000000008;stroke-miterlimit:4;stroke-opacity:1;stroke-dasharray:none;marker:none;visibility:visible;display:inline;overflow:visible;enable-background:accumulate"/></g></svg>