<svg xmlns="http://www.w3.org/2000/svg" xmlns:svg="http://www.w3.org/2000/svg" xmlns:xlink="http://www.w3.org/1999/xlink" id="svg2" width="22" height="22" version="1.0" style="display:inline"><defs id="defs4"><linearGradient id="linearGradient3295"><stop style="stop-color:#559829;stop-opacity:1" id="stop3297" offset="0"/><stop style="stop-color:#86c837;stop-opacity:1" id="stop3299" offset="1"/></linearGradient><linearGradient id="linearGradient3287"><stop style="stop-color:#cd0000;stop-opacity:1" id="stop3289" offset="0"/><stop style="stop-color:#e55300;stop-opacity:1" id="stop3291" offset="1"/></linearGradient><linearGradient id="linearGradient3279"><stop style="stop-color:#f08e00;stop-opacity:1" id="stop3281" offset="0"/><stop style="stop-color:#ffd200;stop-opacity:1" id="stop3283" offset="1"/></linearGradient><linearGradient id="linearGradient3271"><stop style="stop-color:#395d93;stop-opacity:1" id="stop3273" offset="0"/><stop style="stop-color:#6e92c7;stop-opacity:1" id="stop3275" offset="1"/></linearGradient><linearGradient id="linearGradient3327"><stop style="stop-color:#000;stop-opacity:1" id="stop3330" offset="0"/><stop style="stop-color:#000;stop-opacity:0" id="stop3333" offset="1"/></linearGradient><linearGradient id="linearGradient3335" x1="11.375" x2="11.375" y1="22" y2="-9.817" gradientUnits="userSpaceOnUse" xlink:href="#linearGradient3327"/><linearGradient id="linearGradient4081"><stop style="stop-color:#aaa;stop-opacity:1" id="stop4083" offset="0"/><stop style="stop-color:#f0f0f0;stop-opacity:1" id="stop4085" offset="1"/></linearGradient><linearGradient id="linearGradient4057"><stop style="stop-color:#816647;stop-opacity:1" id="stop4059" offset="0"/><stop style="stop-color:#a6845d;stop-opacity:1" id="stop4061" offset="1"/></linearGradient><linearGradient id="linearGradient3929"><stop style="stop-color:#000;stop-opacity:1" id="stop3931" offset="0"/><stop style="stop-color:#000;stop-opacity:0" id="stop3933" offset="1"/></linearGradient><linearGradient id="linearGradient4051" x1="9.495" x2="9.495" y1="15.517" y2="-4.179" gradientUnits="userSpaceOnUse" xlink:href="#linearGradient3929"/><linearGradient id="linearGradient4063" x1="9.171" x2="9.171" y1="21" y2=".972" gradientUnits="userSpaceOnUse" xlink:href="#linearGradient4057"/><linearGradient id="linearGradient4089" x1="6.102" x2="6.102" y1="154.582" y2="36.995" gradientUnits="userSpaceOnUse" xlink:href="#linearGradient4081"/><linearGradient id="linearGradient4103" x1="6.102" x2="6.102" y1="154.582" y2="36.995" gradientUnits="userSpaceOnUse" xlink:href="#linearGradient4081"/><linearGradient id="linearGradient4105" x1="6.102" x2="6.102" y1="154.582" y2="36.995" gradientUnits="userSpaceOnUse" xlink:href="#linearGradient4081"/><linearGradient id="linearGradient4107" x1="6.102" x2="6.102" y1="154.582" y2="36.995" gradientUnits="userSpaceOnUse" xlink:href="#linearGradient4081"/><linearGradient id="linearGradient4109" x1="6.102" x2="6.102" y1="154.582" y2="36.995" gradientUnits="userSpaceOnUse" xlink:href="#linearGradient4081"/><linearGradient id="linearGradient4111" x1="6.102" x2="6.102" y1="154.582" y2="36.995" gradientUnits="userSpaceOnUse" xlink:href="#linearGradient4081"/><linearGradient id="linearGradient4113" x1="6.102" x2="6.102" y1="154.582" y2="36.995" gradientUnits="userSpaceOnUse" xlink:href="#linearGradient4081"/><linearGradient id="linearGradient4115" x1="6.102" x2="6.102" y1="154.582" y2="36.995" gradientUnits="userSpaceOnUse" xlink:href="#linearGradient4081"/><linearGradient id="linearGradient4117" x1="6.102" x2="6.102" y1="154.582" y2="36.995" gradientUnits="userSpaceOnUse" xlink:href="#linearGradient4081"/><linearGradient id="linearGradient4119" x1="6.102" x2="6.102" y1="154.582" y2="36.995" gradientUnits="userSpaceOnUse" xlink:href="#linearGradient4081"/><linearGradient id="linearGradient4121" x1="6.102" x2="6.102" y1="154.582" y2="36.995" gradientUnits="userSpaceOnUse" xlink:href="#linearGradient4081"/><linearGradient id="linearGradient4123" x1="6.102" x2="6.102" y1="154.582" y2="36.995" gradientUnits="userSpaceOnUse" xlink:href="#linearGradient4081"/><linearGradient id="linearGradient4125" x1="6.102" x2="6.102" y1="154.582" y2="36.995" gradientUnits="userSpaceOnUse" xlink:href="#linearGradient4081"/><linearGradient id="linearGradient4127" x1="6.102" x2="6.102" y1="154.582" y2="36.995" gradientUnits="userSpaceOnUse" xlink:href="#linearGradient4081"/><linearGradient id="linearGradient4129" x1="6.102" x2="6.102" y1="154.582" y2="36.995" gradientUnits="userSpaceOnUse" xlink:href="#linearGradient4081"/><linearGradient id="linearGradient4132" x1="6.102" x2="6.102" y1="154.582" y2="36.995" gradientTransform="matrix(0.1317916,0,0,0.1317916,11.619896,-1.9882468)" gradientUnits="userSpaceOnUse" xlink:href="#linearGradient4081"/><linearGradient id="linearGradient4141" x1="6.102" x2="6.102" y1="154.582" y2="36.995" gradientTransform="matrix(0.1317916,0,0,0.1317916,11.619896,-1.9882468)" gradientUnits="userSpaceOnUse" xlink:href="#linearGradient4081"/><linearGradient id="linearGradient4148" x1="6.102" x2="6.102" y1="154.582" y2="36.995" gradientTransform="matrix(0.1317916,0,0,0.1317916,11.619896,-1.9882468)" gradientUnits="userSpaceOnUse" xlink:href="#linearGradient4081"/><linearGradient id="linearGradient4158" x1="6.102" x2="6.102" y1="154.582" y2="36.995" gradientTransform="matrix(0.1317916,0,0,0.1317916,11.619896,-1.9882468)" gradientUnits="userSpaceOnUse" xlink:href="#linearGradient4081"/><linearGradient id="linearGradient4180" x1="6.102" x2="6.102" y1="154.582" y2="36.995" gradientUnits="userSpaceOnUse" xlink:href="#linearGradient4081"/><linearGradient id="linearGradient4182" x1="6.102" x2="6.102" y1="154.582" y2="36.995" gradientTransform="matrix(0.1317916,0,0,0.1317916,11.619896,-1.9882468)" gradientUnits="userSpaceOnUse" xlink:href="#linearGradient4081"/><linearGradient id="linearGradient4184" x1="6.102" x2="6.102" y1="154.582" y2="36.995" gradientUnits="userSpaceOnUse" xlink:href="#linearGradient4081"/><linearGradient id="linearGradient4186" x1="6.102" x2="6.102" y1="154.582" y2="36.995" gradientTransform="matrix(0.1317916,0,0,0.1317916,11.619896,-1.9882468)" gradientUnits="userSpaceOnUse" xlink:href="#linearGradient4081"/><linearGradient id="linearGradient2480" x1="6.102" x2="6.102" y1="154.582" y2="36.995" gradientTransform="matrix(0.1256322,0,0,0.1256322,11.921746,-1.0005124)" gradientUnits="userSpaceOnUse" xlink:href="#linearGradient4081"/><linearGradient id="linearGradient2483" x1="6.102" x2="6.102" y1="154.582" y2="36.995" gradientTransform="matrix(0.1256322,0,0,0.1256322,11.921746,-1.0005124)" gradientUnits="userSpaceOnUse" xlink:href="#linearGradient4081"/><linearGradient id="linearGradient2489" x1="6.102" x2="6.102" y1="154.582" y2="36.995" gradientTransform="matrix(0.1256322,0,0,0.1256322,11.921746,-1.0005124)" gradientUnits="userSpaceOnUse" xlink:href="#linearGradient4081"/><linearGradient id="linearGradient2495" x1="6.102" x2="6.102" y1="154.582" y2="36.995" gradientTransform="matrix(0.1256322,0,0,0.1256322,11.921746,-1.0005124)" gradientUnits="userSpaceOnUse" xlink:href="#linearGradient4081"/><linearGradient id="linearGradient2498" x1="6.102" x2="6.102" y1="154.582" y2="36.995" gradientTransform="matrix(0.1256322,0,0,0.1256322,11.921746,-1.0005124)" gradientUnits="userSpaceOnUse" xlink:href="#linearGradient4081"/><linearGradient id="linearGradient2501" x1="6.102" x2="6.102" y1="154.582" y2="36.995" gradientTransform="matrix(0.1256322,0,0,0.1256322,11.921746,-1.0005124)" gradientUnits="userSpaceOnUse" xlink:href="#linearGradient4081"/><linearGradient id="linearGradient2504" x1="6.102" x2="6.102" y1="154.582" y2="36.995" gradientTransform="matrix(0.1256322,0,0,0.1256322,11.921746,-1.0005124)" gradientUnits="userSpaceOnUse" xlink:href="#linearGradient4081"/><linearGradient id="linearGradient2506" x1="6.102" x2="6.102" y1="154.582" y2="36.995" gradientUnits="userSpaceOnUse" xlink:href="#linearGradient4081"/><linearGradient id="linearGradient2508" x1="6.102" x2="6.102" y1="154.582" y2="36.995" gradientTransform="matrix(0.1317916,0,0,0.1317916,11.619896,-1.9882468)" gradientUnits="userSpaceOnUse" xlink:href="#linearGradient4081"/><linearGradient id="linearGradient2510" x1="6.102" x2="6.102" y1="154.582" y2="36.995" gradientTransform="matrix(0.1317916,0,0,0.1317916,11.619896,-1.9882468)" gradientUnits="userSpaceOnUse" xlink:href="#linearGradient4081"/><clipPath id="clipPath4974" clipPathUnits="userSpaceOnUse"><path id="path4976" d="M 16.625,2 C 15.93281,2.046173 15.13978,2.350316 14.5,2.875 C 13.716105,3.517873 13.079371,5.1522168 13.25,6.0625 C 13.337976,6.531842 13.692147,7.1029241 14.03125,7.28125 C 14.662734,7.613335 15.813682,7.0624791 16.875,5.9375 C 18.021489,4.722239 18.547995,3.383178 18.15625,2.625 C 17.915497,2.159052 17.31719,1.953827 16.625,2 z M 10.96875,2.71875 C 10.005789,2.719616 9.496306,3.3967078 9.5,4.6875 C 9.502528,5.57142 9.81322,6.3666318 10.21875,6.5625 C 10.520262,6.708131 10.527801,6.6945361 10.90625,6.5625 C 11.533114,6.343793 12.122053,4.8839409 12,3.90625 C 11.900109,3.106091 11.556193,2.7182209 10.96875,2.71875 z M 7.15625,4.03125 C 6.976067,4.0573035 6.795347,4.173262 6.625,4.34375 C 6.281636,4.687396 6.277056,4.8747068 6.28125,5.53125 C 6.286196,6.305553 6.475145,6.7277249 7,7.28125 C 7.392601,7.695296 7.675716,7.7200481 8.03125,7.34375 C 8.416388,6.936117 8.535971,6.296057 8.40625,5.59375 C 8.208416,4.5226825 7.696799,3.9530895 7.15625,4.03125 z M 4.46875,6.375 C 4.281799,6.4054104 4.1133,6.5115553 3.9375,6.6875 C 3.476154,7.14923 3.798831,8.4188978 4.53125,9.0625 C 5.405425,9.830669 6.111327,9.1273309 5.8125,7.78125 C 5.599846,6.8233425 5.029603,6.2837687 4.46875,6.375 z M 12.5,8.0625 C 11.88094,8.0518483 11.187196,8.1034691 10.46875,8.25 C 8.61799,8.627471 7.13709,9.3254488 6.1875,10.28125 C 5.640611,10.831715 5.327697,11.341306 5.0625,12.125 C 4.420581,14.021963 5.609396,16.720678 7.875,18.5625 C 8.719088,19.248703 9.234152,19.555813 10.09375,19.84375 C 10.539486,19.993058 10.892913,20.027742 11.71875,20 C 12.665466,19.968192 12.858002,19.925916 13.46875,19.625 C 14.363786,19.184011 15.378303,18.163965 15.8125,17.28125 C 16.077385,16.74275 16.119821,16.512622 16.09375,16.0625 C 16.049227,15.293922 15.751092,15.084744 14.78125,15.09375 C 13.39673,15.106604 12.815494,15.427682 12.53125,16.40625 C 12.31656,17.145368 12.079212,17.40625 11.59375,17.40625 C 10.824382,17.40625 10.03125,16.794459 10.03125,16.15625 C 10.03125,15.712256 10.746563,15.05048 12.53125,13.84375 C 15.045366,12.14381 15.909739,11.109639 15.78125,9.96875 C 15.64852,8.7901993 14.35718,8.0944552 12.5,8.0625 z" style="fill:#fff;fill-opacity:1;stroke:none;stroke-width:.5;stroke-miterlimit:4;stroke-dasharray:none;stroke-opacity:1"/></clipPath><clipPath id="clipPath4995" clipPathUnits="userSpaceOnUse"><path style="opacity:1;fill:#fff;fill-opacity:1;fill-rule:nonzero;stroke:none;stroke-width:1;stroke-linecap:square;stroke-linejoin:miter;stroke-miterlimit:4;stroke-dasharray:none;stroke-dashoffset:0;stroke-opacity:0;display:inline" id="path4997" d="M 30,0 L 30,22 L 52,22 L 52,0 L 30,0 z M 46.625,2 C 47.31719,1.953827 47.915497,2.159052 48.15625,2.625 C 48.547995,3.383178 48.021489,4.722239 46.875,5.9375 C 45.813682,7.0624791 44.662734,7.613335 44.03125,7.28125 C 43.692147,7.1029241 43.337976,6.531842 43.25,6.0625 C 43.079371,5.1522168 43.716105,3.517873 44.5,2.875 C 45.13978,2.350316 45.93281,2.046173 46.625,2 z M 40.96875,2.71875 C 41.556193,2.7182209 41.900109,3.106091 42,3.90625 C 42.122053,4.8839409 41.533114,6.343793 40.90625,6.5625 C 40.527801,6.6945361 40.520262,6.708131 40.21875,6.5625 C 39.81322,6.3666318 39.502528,5.57142 39.5,4.6875 C 39.496306,3.3967078 40.005789,2.719616 40.96875,2.71875 z M 37.15625,4.03125 C 37.696799,3.9530895 38.208416,4.5226825 38.40625,5.59375 C 38.535971,6.296057 38.416388,6.936117 38.03125,7.34375 C 37.675716,7.7200481 37.392601,7.695296 37,7.28125 C 36.475145,6.7277249 36.286196,6.305553 36.28125,5.53125 C 36.277056,4.8747068 36.281636,4.687396 36.625,4.34375 C 36.795347,4.173262 36.976067,4.0573035 37.15625,4.03125 z M 34.46875,6.375 C 35.029603,6.2837687 35.599846,6.8233425 35.8125,7.78125 C 36.111327,9.1273309 35.405425,9.830669 34.53125,9.0625 C 33.798831,8.4188978 33.476154,7.14923 33.9375,6.6875 C 34.1133,6.5115553 34.281799,6.4054104 34.46875,6.375 z M 42.5,8.0625 C 44.35718,8.0944552 45.64852,8.7901993 45.78125,9.96875 C 45.909739,11.109639 45.045366,12.14381 42.53125,13.84375 C 40.746563,15.05048 40.03125,15.712256 40.03125,16.15625 C 40.03125,16.794459 40.824382,17.40625 41.59375,17.40625 C 42.079212,17.40625 42.31656,17.145368 42.53125,16.40625 C 42.815494,15.427682 43.39673,15.106604 44.78125,15.09375 C 45.751092,15.084744 46.049227,15.293922 46.09375,16.0625 C 46.119821,16.512622 46.077385,16.74275 45.8125,17.28125 C 45.378303,18.163965 44.363786,19.184011 43.46875,19.625 C 42.858002,19.925916 42.665466,19.968192 41.71875,20 C 40.892913,20.027742 40.539486,19.993058 40.09375,19.84375 C 39.234152,19.555813 38.719088,19.248703 37.875,18.5625 C 35.609396,16.720678 34.420581,14.021963 35.0625,12.125 C 35.327697,11.341306 35.640611,10.831715 36.1875,10.28125 C 37.13709,9.3254488 38.61799,8.627471 40.46875,8.25 C 41.187196,8.1034691 41.88094,8.0518483 42.5,8.0625 z"/></clipPath><linearGradient id="linearGradient5065" x1="11.509" x2="11.509" y1="6.667" y2="2.688" gradientTransform="translate(-30,-30)" gradientUnits="userSpaceOnUse" xlink:href="#linearGradient4081"/><linearGradient id="linearGradient5068" x1="17.212" x2="17.212" y1="7.381" y2="1.988" gradientTransform="translate(-30,-30)" gradientUnits="userSpaceOnUse" xlink:href="#linearGradient4081"/><linearGradient id="linearGradient5071" x1="7.374" x2="7.374" y1="7.605" y2="4.035" gradientTransform="translate(-30,-30)" gradientUnits="userSpaceOnUse" xlink:href="#linearGradient4081"/><linearGradient id="linearGradient5074" x1="4.95" x2="4.95" y1="9.393" y2="6.364" gradientTransform="translate(-30,-30)" gradientUnits="userSpaceOnUse" xlink:href="#linearGradient4081"/><linearGradient id="linearGradient5077" x1="13" x2="13" y1="20" y2="7.996" gradientTransform="translate(-30,-30)" gradientUnits="userSpaceOnUse" xlink:href="#linearGradient4081"/><linearGradient id="linearGradient3345" x1="6.839" x2="6.839" y1="16.3" y2="6.053" gradientUnits="userSpaceOnUse" xlink:href="#linearGradient4081"/><linearGradient id="linearGradient3355" x1="12.316" x2="12.316" y1="18.468" y2="3.482" gradientUnits="userSpaceOnUse" xlink:href="#linearGradient4081"/><linearGradient id="linearGradient3357" x1="18.765" x2="18.765" y1="21" y2=".967" gradientUnits="userSpaceOnUse" xlink:href="#linearGradient4081"/><linearGradient id="linearGradient3522" x1="6.839" x2="6.839" y1="16.3" y2="6.053" gradientTransform="translate(1,0)" gradientUnits="userSpaceOnUse" xlink:href="#linearGradient4081"/><linearGradient id="linearGradient3527" x1="6.839" x2="6.839" y1="16.3" y2="6.053" gradientTransform="translate(1,0)" gradientUnits="userSpaceOnUse" xlink:href="#linearGradient4081"/><linearGradient id="linearGradient3538" x1="16.5" x2="16.5" y1="19.543" y2="2.5" gradientTransform="translate(1,0)" gradientUnits="userSpaceOnUse" xlink:href="#linearGradient4081"/><linearGradient id="linearGradient3540" x1="14.525" x2="14.525" y1="17.419" y2="4.625" gradientTransform="translate(1,0)" gradientUnits="userSpaceOnUse" xlink:href="#linearGradient4081"/><linearGradient id="linearGradient3542" x1="10.505" x2="10.505" y1="15.281" y2="6.746" gradientTransform="translate(1,0)" gradientUnits="userSpaceOnUse" xlink:href="#linearGradient4081"/><linearGradient id="linearGradient3552" x1="16.5" x2="16.5" y1="19.543" y2="2.5" gradientTransform="translate(1,0)" gradientUnits="userSpaceOnUse" xlink:href="#linearGradient4081"/><linearGradient id="linearGradient3690" x1="9" x2="9" y1="20" y2="4" gradientUnits="userSpaceOnUse" xlink:href="#linearGradient4081"/><linearGradient id="linearGradient3696" x1="9" x2="9" y1="20" y2="4" gradientTransform="translate(0,1)" gradientUnits="userSpaceOnUse" xlink:href="#linearGradient4081"/><linearGradient id="linearGradient3698" x1="9" x2="9" y1="20" y2="4" gradientUnits="userSpaceOnUse" xlink:href="#linearGradient4081"/><linearGradient id="linearGradient3694" x1="39" x2="39" y1="19" y2="2.969" gradientTransform="translate(-30,0)" gradientUnits="userSpaceOnUse" xlink:href="#linearGradient4081"/><linearGradient id="linearGradient3700" x1="39" x2="39" y1="19" y2="2.969" gradientTransform="translate(0,1)" gradientUnits="userSpaceOnUse" xlink:href="#linearGradient4081"/><linearGradient id="linearGradient3702" x1="39" x2="39" y1="19" y2="2.969" gradientUnits="userSpaceOnUse" xlink:href="#linearGradient4081"/><linearGradient id="linearGradient3716" x1="-29" x2="-9" y1="31" y2="31" gradientUnits="userSpaceOnUse" xlink:href="#linearGradient4081"/><linearGradient id="linearGradient3719" x1="-20" x2="-20" y1="38" y2="23.964" gradientTransform="translate(30,-20)" gradientUnits="userSpaceOnUse" xlink:href="#linearGradient4081"/><linearGradient id="linearGradient7136" x1="30.56" x2="30.56" y1="16.125" y2="4.843" gradientTransform="matrix(0.8888889,0,0,0.8888889,9.111111,1.6666667)" gradientUnits="userSpaceOnUse" xlink:href="#linearGradient3183"/><linearGradient id="linearGradient3183"><stop style="stop-color:#c80000;stop-opacity:1" id="stop3185" offset="0"/><stop style="stop-color:#f3604d;stop-opacity:1" id="stop3187" offset="1"/></linearGradient><linearGradient id="linearGradient7193" x1="11" x2="19" y1="11.016" y2="11.016" gradientTransform="matrix(0,0.8456457,0.8456457,0,8.6846841,5.330938)" gradientUnits="userSpaceOnUse" xlink:href="#SpecificGradient"/><linearGradient id="linearGradient2946"><stop style="stop-color:#c80000;stop-opacity:1" id="stop2948" offset="0"/><stop style="stop-color:#f3604d;stop-opacity:1" id="stop2950" offset="1"/></linearGradient><linearGradient id="linearGradient7163" x1="22.619" x2="22.619" y1="34.125" y2="25.112" gradientTransform="matrix(0.8888889,0,0,0.8888889,16.111111,14.666667)" gradientUnits="userSpaceOnUse" xlink:href="#linearGradient3183"/><linearGradient id="linearGradient2953"><stop style="stop-color:#c80000;stop-opacity:1" id="stop2955" offset="0"/><stop style="stop-color:#f3604d;stop-opacity:1" id="stop2957" offset="1"/></linearGradient><linearGradient id="linearGradient2962" x1="30.56" x2="30.56" y1="16.125" y2="4.843" gradientTransform="matrix(0.8888889,0,0,0.8888889,9.111111,21.666667)" gradientUnits="userSpaceOnUse" xlink:href="#linearGradient3183"/><linearGradient id="linearGradient3829" x1="54" x2="59" y1="3.5" y2="3.5" gradientTransform="translate(-45,53)" gradientUnits="userSpaceOnUse" xlink:href="#SpecificGradient"/><linearGradient id="SpecificGradient" x1="10.762" x2="10.762" y1="4" y2="18.011" gradientUnits="userSpaceOnUse"><stop style="stop-color:#ad0707;stop-opacity:1" id="stop3292" offset="0"/><stop style="stop-color:#f75535;stop-opacity:1" id="stop3294" offset="1"/></linearGradient><linearGradient id="linearGradient3833" x1="54" x2="59" y1="3.5" y2="3.5" gradientTransform="translate(-53,53)" gradientUnits="userSpaceOnUse" xlink:href="#StandardGradient"/><linearGradient id="StandardGradient" x1="10.71" x2="10.71" y1="1.996" y2="18.974" gradientTransform="matrix(0.9984539,0,0,0.9984539,-0.0459776,0.05767558)" gradientUnits="userSpaceOnUse"><stop style="stop-color:#000;stop-opacity:.86274511" id="stop3277" offset="0"/><stop style="stop-color:#000;stop-opacity:.47058824" id="stop3279" offset="1"/></linearGradient><linearGradient id="linearGradient3756" x1="11" x2="19" y1="11.016" y2="11.016" gradientTransform="matrix(0,0.8456457,0.8456457,0,8.6846841,6.330938)" gradientUnits="userSpaceOnUse" xlink:href="#SpecificGradient"/><linearGradient id="linearGradient3758" x1="11" x2="19" y1="11.016" y2="11.016" gradientTransform="matrix(0,0.8456457,0.8456457,0,8.6846841,5.330938)" gradientUnits="userSpaceOnUse" xlink:href="#SpecificGradient"/><linearGradient id="linearGradient3763" x1="11" x2="19" y1="11.016" y2="11.016" gradientTransform="matrix(0,0.8456457,0.8456457,0,8.6846841,6.330938)" gradientUnits="userSpaceOnUse" xlink:href="#SpecificGradient"/><linearGradient id="linearGradient3767" x1="11" x2="19" y1="11.016" y2="11.016" gradientTransform="matrix(0,0.8456457,0.8456457,0,8.6846841,5.330938)" gradientUnits="userSpaceOnUse" xlink:href="#SpecificGradient"/><linearGradient id="linearGradient3772" x1="11" x2="19" y1="11.016" y2="11.016" gradientTransform="matrix(0,0.8456457,0.8456457,0,-21.315316,5.330938)" gradientUnits="userSpaceOnUse" xlink:href="#SpecificGradient"/><clipPath id="clipPath3777" clipPathUnits="userSpaceOnUse"><path style="fill:#f0f;fill-opacity:1;stroke:none;display:inline" id="path3779" d="m -30,0 0,22 22,0 0,-22 -22,0 z M -13.71875,14.625 -12,16.3125 -10.34375,14.625 -8.5625,16.40625 -10.25,18 -8.5625,19.625 -10.34375,21.40625 -12,19.71875 -13.71875,21.40625 -15.4375,19.6875 -13.75,18 -15.4375,16.34375 -13.71875,14.625 z"/></clipPath><linearGradient id="linearGradient7311" x1="11" x2="19" y1="11.016" y2="11.016" gradientTransform="matrix(0,0.8456457,0.8456457,0,8.6846841,5.330938)" gradientUnits="userSpaceOnUse" xlink:href="#SpecificGradient"/><linearGradient id="linearGradient7315" x1="11" x2="19" y1="11.016" y2="11.016" gradientTransform="matrix(0,0.8456457,0.8456457,0,8.6846841,5.330938)" gradientUnits="userSpaceOnUse" xlink:href="#SpecificGradient"/></defs><metadata id="metadata7"/><g id="layer1" style="display:inline"><path style="fill:#fff;fill-opacity:1;fill-rule:evenodd;stroke:none;display:inline;opacity:.15" id="path7313" d="M 16.28125 13.71875 A 0.88524157 0.88524157 0 0 0 16.09375 13.75 A 0.88524157 0.88524157 0 0 0 15.65625 14 L 13.9375 15.71875 A 0.88524157 0.88524157 0 0 0 13.9375 16.96875 L 15 18 L 13.9375 19.0625 A 0.88524157 0.88524157 0 0 0 13.9375 20.3125 L 15.65625 22.03125 A 0.88524157 0.88524157 0 0 0 16.90625 22.03125 L 18 20.96875 L 19.03125 22.03125 A 0.88524157 0.88524157 0 0 0 20.28125 22.03125 L 22.0625 20.25 A 0.88524157 0.88524157 0 0 0 22.0625 19 L 21.03125 18 L 22.03125 17.0625 A 0.88524157 0.88524157 0 0 0 22.0625 15.78125 L 20.28125 14 A 0.88524157 0.88524157 0 0 0 19.03125 14 L 18 15.0625 L 16.90625 14 A 0.88524157 0.88524157 0 0 0 16.28125 13.71875 z M 16.28125 14.625 L 18 16.3125 L 19.65625 14.625 L 21.4375 16.40625 L 19.75 18 L 21.4375 19.625 L 19.65625 21.40625 L 18 19.71875 L 16.28125 21.40625 L 14.5625 19.6875 L 16.25 18 L 14.5625 16.34375 L 16.28125 14.625 z"/><path style="opacity:.25;fill:#000;fill-opacity:1;stroke:none" id="rect2911" d="m 6.385832,12.017557 c -0.3232816,0.0458 -0.629422,0.204084 -0.8532447,0.441147 L 3.5100816,14.475378 C 3.23877,14.736982 3.0762067,15.107484 3.0676584,15.483715 l 0,2.016674 c -1.146e-4,0.0105 -1.146e-4,0.02101 0,0.03151 l -1.7831023,1.734916 c -0.3961453,0.395003 -0.3961453,1.054482 0,1.449485 0.3961454,0.395002 1.0575307,0.395002 1.453676,0 l 1.7831023,-1.766428 2.0225056,0 c 0.3773193,-0.0085 0.7488925,-0.170618 1.011253,-0.441147 l 2.022506,-2.016674 c 0.519186,-0.533762 0.519186,-1.482912 0,-2.016674 L 7.555093,12.458704 C 7.2570066,12.148593 6.8151351,11.981881 6.385832,12.017557 z"/><path id="path3691" d="m -11.875,32.46875 -6.84375,6.8125 c -0.391737,0.391737 -0.391737,1.045763 0,1.4375 0.391737,0.391737 1.045763,0.391737 1.4375,0 L -10.3125,33.75 c -0.560755,-0.381592 -1.069218,-0.818922 -1.5625,-1.28125 z" style="opacity:.2;fill:red;fill-opacity:1;stroke:none"/><path id="path3693" d="M 10.84375,7.5625 A 1.4363353,1.4363353 0 0 0 10,8 l -2,2 a 1.4363353,1.4363353 0 0 0 -0.4375,1 l 0,2 A 1.4363353,1.4363353 0 0 0 9,14.4375 l 2,0 A 1.4363353,1.4363353 0 0 0 12,14 l 2,-2 a 1.4363353,1.4363353 0 0 0 0,-2 L 12,8 A 1.4363353,1.4363353 0 0 0 10.84375,7.5625 z" transform="translate(-22.5625,22.5625)" style="opacity:.2;fill:red;stroke:none"/><path id="path3698" d="m 15.568604,10.007794 c 0.323281,-0.0458 0.629422,-0.204084 0.853244,-0.441147 l 2.022506,-2.016674 c 0.271312,-0.261604 0.433875,-0.632106 0.442423,-1.008337 l 0,-2.016674 c 1.15e-4,-0.0105 1.15e-4,-0.02101 0,-0.03151 L 20.66988,2.758536 c 0.396145,-0.395003 0.396145,-1.054482 0,-1.449485 -0.396146,-0.3950024 -1.057531,-0.3950024 -1.453676,0 l -1.783103,1.766428 -2.022505,0 c -0.37732,0.0085 -0.748893,0.170618 -1.011253,0.441147 L 12.376837,5.5333 c -0.519186,0.533762 -0.519186,1.482912 0,2.016674 l 2.022506,2.016673 c 0.298086,0.310111 0.739958,0.476823 1.169261,0.441147 z" style="opacity:.25;fill:#000;fill-opacity:1;stroke:none"/><path style="fill:url(#linearGradient2962);fill-opacity:1;fill-rule:nonzero;stroke:none;display:inline" id="path2676" d="m 35,26 c -2.76,0 -5,2.24 -5,5 0,2.76 2.24,5 5,5 2.76,0 5,-2.24 5,-5 0,-2.76 -2.24,-5 -5,-5 z m 0,2 c 0.453289,0 0.86463,0.132266 1.25,0.3125 L 32.3125,32.25 C 32.132266,31.86463 32,31.453289 32,31 c -1e-6,-1.656 1.344,-3 3,-3 z m 2.6875,1.6875 C 37.882924,30.085687 38,30.526773 38,31 c 0,1.656 -1.344,3 -3,3 -0.473227,0 -0.914313,-0.117076 -1.3125,-0.3125 l 4,-4 z"/><path style="fill:url(#linearGradient7163);fill-opacity:1;fill-rule:nonzero;stroke:none;display:inline" id="path7142" d="m 35,37 c -2.208,0 -4,1.791999 -4,4 0,2.208 1.792,4.000001 4,4 2.208,0 4,-1.792001 4,-4 0,-2.208 -1.792,-3.999999 -4,-4 z m 0,2 c 0.1932,0 0.385727,0.01131 0.5625,0.0625 l -2.5,2.5 C 33.01131,41.385727 33,41.1932 33,41 c 0,-1.103999 0.896,-2 2,-2 z m 1.9375,1.53125 C 36.97398,40.682246 37,40.83785 37,41 c 0,1.104001 -0.896,2 -2,2 -0.16215,0 -0.317754,-0.02602 -0.46875,-0.0625 l 2.40625,-2.40625 z"/><path style="fill:url(#linearGradient7193);fill-opacity:1;fill-rule:evenodd;stroke:none;display:inline" id="path7165" d="m 14.577777,16.350759 1.717718,-1.717717 1.691292,1.664864 1.664864,-1.664864 1.770572,1.77057 -1.664866,1.612012 1.664866,1.612012 -1.770572,1.770571 -1.664864,-1.664865 -1.691292,1.664865 -1.717718,-1.717718 1.664866,-1.664865 -1.664866,-1.664865 z"/><rect id="rect3825" width="5" height="5" x="1" y="54" transform="matrix(0,1,1,0,0,0)" style="fill:url(#linearGradient3833);fill-opacity:1;stroke:none;display:inline"/><rect style="fill:url(#linearGradient3829);fill-opacity:1;stroke:none;display:inline" id="rect3808" width="5" height="5" x="9" y="54" transform="matrix(0,1,1,0,0,0)"/><path id="path3748" d="m 14.577777,16.350759 1.717718,-1.717717 1.691292,1.664864 1.664864,-1.664864 1.770572,1.77057 -1.664866,1.612012 1.664866,1.612012 -1.770572,1.770571 -1.664864,-1.664865 -1.691292,1.664865 -1.717718,-1.717718 1.664866,-1.664865 -1.664866,-1.664865 z" style="fill:url(#linearGradient7193);fill-opacity:1;fill-rule:evenodd;stroke:none;display:inline"/><path style="fill:url(#linearGradient7193);fill-opacity:1;fill-rule:evenodd;stroke:none;display:inline" id="path3750" d="m 14.577777,16.350759 1.717718,-1.717717 1.691292,1.664864 1.664864,-1.664864 1.770572,1.77057 -1.664866,1.612012 1.664866,1.612012 -1.770572,1.770571 -1.664864,-1.664865 -1.691292,1.664865 -1.717718,-1.717718 1.664866,-1.664865 -1.664866,-1.664865 z"/><path style="fill:#500;fill-opacity:1;fill-rule:evenodd;stroke:none;display:inline;opacity:.5" id="path3752" d="M 16.28125 14.625 L 14.5625 16.34375 L 15.0625 16.84375 L 16.28125 15.625 L 18 17.3125 L 19.65625 15.625 L 20.9375 16.90625 L 21.4375 16.40625 L 19.65625 14.625 L 18 16.3125 L 16.28125 14.625 z M 15.75 18.5 L 14.5625 19.6875 L 15.0625 20.1875 L 16.25 19 L 15.75 18.5 z M 20.28125 18.5 L 19.75 19 L 20.9375 20.125 L 21.4375 19.625 L 20.28125 18.5 z"/><path style="fill:#fff;fill-opacity:1;fill-rule:evenodd;stroke:none;display:inline;opacity:.3" id="path3761" d="M 15.0625 16.84375 L 14.5625 17.34375 L 15.75 18.5 L 16.25 18 L 15.0625 16.84375 z M 20.9375 16.90625 L 19.75 18 L 20.28125 18.5 L 21.4375 17.40625 L 20.9375 16.90625 z M 18 19.71875 L 16.28125 21.40625 L 15.0625 20.1875 L 14.5625 20.6875 L 16.28125 22.40625 L 18 20.71875 L 19.65625 22.40625 L 21.4375 20.625 L 20.9375 20.125 L 19.65625 21.40625 L 18 19.71875 z"/></g></svg>